<svg xmlns="http://www.w3.org/2000/svg" class="w-32" viewBox="0 0 125 48" fill="none"><path fill-rule="evenodd" clip-rule="evenodd" d="M26.1839 22.5583C27.2236 20.8131 27.8209 18.7735 27.8209 16.5945C27.8209 10.15 22.5966 4.92575 16.1521 4.92575C9.70765 4.92575 4.48337 10.15 4.48337 16.5945C4.48337 19.2302 5.35724 21.6618 6.83106 23.6154L4.45418 27.7323C1.69424 24.8344 0 20.9123 0 16.5945C0 7.67394 7.23156 0.442383 16.1521 0.442383C25.0727 0.442383 32.3043 7.67394 32.3043 16.5945C32.3043 20.4785 30.9334 24.0422 28.6492 26.8283L26.1839 22.5583Z" fill="#DB6332"></path><path d="M18.4489 47.5578C16.302 47.5578 14.7719 47.1016 13.8589 46.1893C12.9458 45.2769 12.4893 43.8468 12.4893 41.8988V22.2588H19.4484V41.1221C19.4484 41.6646 19.5594 42.0345 19.7815 42.2317C20.0036 42.4043 20.3491 42.4906 20.818 42.4906C21.1388 42.4906 21.4473 42.466 21.7434 42.4167C22.0642 42.3673 22.3603 42.2934 22.6318 42.1947V46.818C21.9902 47.0646 21.3609 47.2496 20.7439 47.3728C20.1517 47.4961 19.3867 47.5578 18.4489 47.5578Z" fill="#F2F3D9"></path><path d="M29.7369 47.5578C27.6887 47.5578 26.0846 46.9783 24.9248 45.8194C23.7649 44.6605 23.185 42.9591 23.185 40.7153V29.6562H30.1441V40.1605C30.1441 41.6892 30.9215 42.4536 32.4761 42.4536C33.0437 42.4536 33.599 42.3304 34.1419 42.0838C34.6848 41.8372 35.1167 41.529 35.4375 41.1591V29.6562H42.3966V47.1879H35.8817L35.6966 45.8564C35.0056 46.3495 34.1542 46.7564 33.1424 47.0769C32.1553 47.3975 31.0202 47.5578 29.7369 47.5578Z" fill="#F2F3D9"></path><path d="M45.7101 47.1879V29.6562H52.151L52.3361 31.0617C53.1011 30.5439 53.9524 30.1247 54.8902 29.8041C55.8526 29.4589 56.9014 29.2863 58.0366 29.2863C59.1718 29.2863 60.0602 29.4466 60.7018 29.7671C61.3434 30.0877 61.8616 30.5562 62.2565 31.1726C63.0462 30.6055 63.9345 30.1493 64.9216 29.8041C65.9334 29.4589 67.118 29.2863 68.4752 29.2863C70.5235 29.2863 72.0288 29.8288 72.9912 30.9137C73.9537 31.974 74.4349 33.6014 74.4349 35.796V47.1879H67.5868V36.6097C67.5868 35.8207 67.4264 35.2659 67.1056 34.9453C66.7848 34.6001 66.2542 34.4275 65.5139 34.4275C64.5515 34.4275 63.7618 34.7727 63.1449 35.4631C63.1942 35.7837 63.2189 36.0919 63.2189 36.3878C63.2189 36.659 63.2189 36.9672 63.2189 37.3125V47.1879H56.778V36.4987C56.778 35.7837 56.6546 35.2659 56.4079 34.9453C56.1611 34.6001 55.6922 34.4275 55.0012 34.4275C54.5324 34.4275 54.0758 34.5508 53.6316 34.7974C53.1874 35.0439 52.7926 35.3398 52.4471 35.685V47.1879H45.7101Z" fill="#F2F3D9"></path><path d="M79.3702 47.1879V34.7234H76.8161L77.4083 29.6562H86.3293V47.1879H79.3702Z" fill="#F2F3D9"></path><path d="M89.6672 47.1879V29.6562H96.1821L96.3671 30.9877C97.0334 30.5439 97.9095 30.1493 98.9953 29.8041C100.106 29.4589 101.29 29.2863 102.549 29.2863C104.745 29.2863 106.349 29.8288 107.361 30.9137C108.373 31.9987 108.879 33.6754 108.879 35.9439V47.1879H101.92V36.6467C101.92 35.8576 101.747 35.2905 101.401 34.9453C101.056 34.6001 100.451 34.4275 99.5876 34.4275C99.0693 34.4275 98.5264 34.5508 97.9588 34.7974C97.4159 35.0439 96.9718 35.3398 96.6263 35.685V47.1879H89.6672Z" fill="#F2F3D9"></path><path d="M112.007 47.1879V29.6562H118.707L118.892 31.0617C119.608 30.6425 120.521 30.2603 121.631 29.9151C122.742 29.5699 123.865 29.3603 125 29.2863V34.4645C124.358 34.5138 123.655 34.6001 122.89 34.7234C122.15 34.8467 121.422 35.0069 120.706 35.2042C120.015 35.3768 119.435 35.5741 118.966 35.796V47.1879H112.007Z" fill="#F2F3D9"></path><path d="M84.522 25.4532C84.522 27.0112 83.258 28.2742 81.6988 28.2742C80.1395 28.2742 78.8755 27.0112 78.8755 25.4532C78.8755 23.8952 80.1395 22.6322 81.6988 22.6322C83.258 22.6322 84.522 23.8952 84.522 25.4532Z" fill="#DB6332"></path></svg>