<svg xmlns="http://www.w3.org/2000/svg" class="w-8" viewBox="0 0 33 48" fill="none"><path fill-rule="evenodd" clip-rule="evenodd" d="M26.1839 22.1159C27.2236 20.3707 27.8209 18.3312 27.8209 16.1521C27.8209 9.70765 22.5966 4.48337 16.1521 4.48337C9.70765 4.48337 4.48337 9.70765 4.48337 16.1521C4.48337 18.7878 5.35724 21.2195 6.83106 23.173L4.45418 27.2899C1.69424 24.392 0 20.4699 0 16.1521C0 7.23155 7.23156 0 16.1521 0C25.0727 0 32.3043 7.23155 32.3043 16.1521C32.3043 20.0361 30.9334 23.5998 28.6492 26.386L26.1839 22.1159Z" fill="#DB6332"></path><path d="M18.4491 47.1154C16.3021 47.1154 14.7721 46.6592 13.859 45.7469C12.946 44.8345 12.4894 43.4044 12.4894 41.4565V21.8164H19.4485V40.6797C19.4485 41.2222 19.5596 41.5921 19.7817 41.7893C20.0038 41.9619 20.3493 42.0482 20.8182 42.0482C21.139 42.0482 21.4474 42.0236 21.7436 41.9743C22.0644 41.925 22.3605 41.851 22.632 41.7523V46.3757C21.9903 46.6222 21.3611 46.8072 20.7441 46.9305C20.1519 47.0538 19.3868 47.1154 18.4491 47.1154Z" fill="#F2F3D9"></path></svg>