<svg viewBox="0 0 377 350" fill="none" xmlns="http://www.w3.org/2000/svg"><path d="M28.948 206.842L28.896 216.489C28.915 217.687 29.826 219.606 30.956 220.006L231.211 293.169C235.513 294.694 240.646 294.088 244.939 292.537L334.104 257.76C335.472 257.262 336.4 255.982 336.449 254.527L336.86 243.303L28.948 206.842Z" fill="#DB6332"></path><path d="M117.148 171.729C123.305 169.354 130.107 169.255 136.329 171.451L333.183 240.927C335.393 241.707 335.431 244.818 333.24 245.651L248.247 277.961C242.753 280.05 234.572 281.047 229.021 279.115L32.6578 209.114C30.4278 208.338 30.3758 205.203 32.5788 204.353L117.148 171.729Z" fill="#343430" stroke="#F2F4D9" stroke-width="4" stroke-miterlimit="10" stroke-linejoin="round"></path><path opacity="0.683813" d="M332.418 242.766C333.023 242.98 333.03 243.605 332.564 243.782L247.835 275.874C242.341 277.963 235.551 279.398 230.001 277.465L33.299 207.203C33.269 207.193 32.865 207.052 32.957 206.641C33.047 206.241 33.4089 206.184 33.4089 206.184L332.418 242.766Z" fill="#494949"></path><path d="M33.7282 207.934C32.7412 207.545 32.7452 206.148 33.7342 205.764L122.155 171.465C124.814 170.433 127.742 170.323 130.471 171.15L143.163 175L44.4682 212.35L33.7282 207.934Z" fill="#F2F4D9"></path><path d="M332.202 242.313C333.158 242.681 333.142 244.033 332.177 244.412L245.922 278.337C243.328 279.358 234.65 280.937 232.004 280.16L216.741 275.118L319.42 236.361L332.202 242.313Z" fill="#F2F4D9"></path><path opacity="0.456168" d="M278.194 256.953C278.164 255.154 282.134 253.628 287.062 253.545C291.99 253.462 296.009 254.853 296.04 256.653C296.07 258.452 292.1 259.978 287.172 260.061C282.244 260.144 278.224 258.752 278.194 256.953Z" fill="#F2F4D9" stroke="#DB6332" stroke-width="2" stroke-miterlimit="10" stroke-linejoin="round"></path><path opacity="0.273789" d="M87.0771 187.96L100.462 183.231" stroke="#DB6332" stroke-width="4" stroke-miterlimit="10" stroke-linecap="round" stroke-linejoin="round"></path><path d="M167.585 130.579L191.522 170.857C191.522 170.857 205.876 177.703 212.284 162.158L189.151 120.069C189.151 120.069 172.614 111.948 167.585 130.579Z" fill="#DB6332" stroke="#F2F4D9" stroke-width="2" stroke-miterlimit="10" stroke-linejoin="round"></path><path d="M174.192 125.284C174.192 125.284 181.039 115.837 182.878 119.787C182.878 119.787 184.862 125.831 179.978 133.851C179.978 133.851 178.84 145 178.438 149.652L191.74 169.693C191.74 169.693 207.431 175.311 211.257 162.308C211.257 162.308 193.999 167.64 193.705 160.959C193.499 156.274 208.653 153.228 210.265 152.704C210.265 152.704 188.5 158.775 188.042 153.829C187.274 145.541 206.496 143.268 206.496 143.268C206.496 143.268 186.635 146.123 186.113 142.299C185.253 136.006 198.941 134.115 202.487 133.733C202.487 133.733 186.815 134.677 186.864 130.287C186.883 128.552 188.035 127.38 192.814 125.097C195.369 123.877 206.74 122.22 208.793 125.168C209.607 126.339 210.731 126.898 211.134 128.926C211.536 130.955 210.446 132.637 210.403 133.282C210.403 133.282 212.509 134.297 213.528 136.054C214.368 137.501 214.189 139.6 213.945 140.755C213.945 140.755 216.766 142.426 217.88 145.162C218.994 147.898 219.061 150.012 218.399 151.699C218.399 151.699 223.873 159.26 216.868 168.246C209.862 177.233 201.186 176.35 197.893 184.912C194.6 193.474 195.688 200.4 195.688 200.4C195.688 200.4 167.511 211.526 167.897 201.036C168.283 190.546 172.306 177.197 170.336 169.873C168.367 162.548 162.599 144.479 174.192 125.284Z" fill="#1E1E1D" stroke="#F2F4D9" stroke-width="2" stroke-miterlimit="10" stroke-linejoin="round"></path><path d="M200.082 225.49C200.082 225.49 174.523 235.513 162.669 225.191C162.669 225.191 162.091 213.71 164.263 203.405C164.263 203.405 163.451 193.97 167.908 194.262C167.908 194.262 165.327 197.143 172.075 200.264C172.075 200.264 192.298 206.866 196.111 194.617C196.111 194.617 198.176 193.546 198.773 196.717C198.773 196.717 198.612 200.723 198.932 202.455C199.251 204.188 200.203 223.978 200.082 225.49Z" fill="#DB6332" stroke="#F2F4D9" stroke-width="2" stroke-miterlimit="10" stroke-linejoin="round"></path><path opacity="0.493855" d="M196.433 194.61C196.433 194.61 199.454 197.221 193.69 201.751C187.926 206.281 186.209 209.408 187.842 212.887C189.475 216.365 188.453 215.838 188.354 218.371C188.255 220.904 183.709 232.068 164.95 226.931C164.95 226.931 176.164 234.54 200.291 225.469C224.418 216.399 200.746 225.349 200.746 225.349C200.746 225.349 199.424 203.48 199.015 201.397C199.015 201.397 199.841 193.308 196.433 194.61Z" fill="#494949"></path><path d="M138.927 115.886L136.181 117.833C136.181 117.833 136.95 123.057 139.048 126.643C141.145 130.229 144.571 132.177 144.571 132.177L147.555 130.457L138.927 115.886Z" fill="#F2F4D9" stroke="#F2F4D9" stroke-width="2" stroke-miterlimit="10" stroke-linejoin="round"></path><path d="M165.786 88.228C165.786 88.228 158.4 97.056 163.796 107.465C169.191 117.873 173.313 119.962 180.214 120.955L161.28 135.096C161.28 135.096 149.653 135.783 141.813 124.338C136.533 116.63 140.437 104.075 140.437 104.075L165.786 88.228Z" fill="#DB6332" stroke="#F2F4D9" stroke-width="2" stroke-miterlimit="10" stroke-linejoin="round"></path><path d="M165.75 87.9722L191.592 54.6692C191.592 54.6692 189.741 101.687 230.356 115.77L178.95 121.535C178.95 121.535 168.917 120.914 162.665 105.341C162.665 105.341 159.68 93.7972 165.75 87.9722Z" fill="#1E1E1D" stroke="#F2F4D9" stroke-width="2" stroke-miterlimit="10" stroke-linejoin="round"></path><path d="M194.688 73.9921L210.178 71.2351L220.069 90.8091L211.389 103.299C211.389 103.299 195 84.2541 194.688 73.9921Z" fill="#F2F4D9" fill-opacity="0.147675" stroke="#F2F4D9" stroke-width="2" stroke-miterlimit="10" stroke-linejoin="round"></path><path opacity="0.0375117" d="M191.792 54.5151C191.792 54.5151 189.125 69.1951 197.594 84.2661C197.594 84.2661 162.813 99.2801 161.918 99.2801L138.914 114.852C138.914 114.852 140.17 104.611 140.31 104.552C140.45 104.493 162.616 91.1601 162.616 91.1601C162.616 91.1601 191.138 54.8481 191.792 54.5151Z" fill="#F2F4D9"></path><path d="M198.182 42.1271C196.832 42.2021 195.577 42.5451 194.432 43.1581C185.268 48.0671 186.901 68.9621 198.088 89.8461C209.275 110.729 225.768 123.692 234.932 118.783C244.095 113.875 242.462 92.9481 231.275 72.0641C221.487 53.7921 207.631 41.6031 198.182 42.1271ZM201.588 46.5961C209.657 46.1481 221.511 56.5851 229.869 72.1891C239.422 90.0231 240.819 107.873 232.994 112.064C225.169 116.256 211.078 105.21 201.525 87.3771C191.973 69.5441 190.575 51.6621 198.4 47.4711C199.379 46.9471 200.435 46.6601 201.588 46.5961Z" fill="#DB6332" stroke="#F2F4D9" stroke-width="2" stroke-miterlimit="10" stroke-linejoin="round"></path><path d="M209.192 83.6362C206.362 77.6012 206.617 71.5132 209.762 70.0382C212.907 68.5642 217.751 72.2612 220.581 78.2962C223.41 84.3322 223.155 90.4202 220.01 91.8942C216.865 93.3692 212.022 89.6712 209.192 83.6362Z" fill="#DB6332"></path><path d="M211.529 83.009C209.364 78.391 209.56 73.733 211.966 72.605C214.372 71.477 218.078 74.306 220.243 78.923C222.408 83.541 222.213 88.199 219.807 89.328C217.4 90.456 213.694 87.627 211.529 83.009Z" fill="#F2F4D9"></path><path d="M214.087 81.604C212.742 78.735 212.863 75.841 214.358 75.14C215.853 74.44 218.155 76.197 219.5 79.065C220.845 81.934 220.724 84.828 219.229 85.529C217.734 86.229 215.432 84.472 214.087 81.604Z" fill="#DB6332"></path><path d="M148.664 109.965L152.464 107.676" stroke="#F2F4D9" stroke-width="2" stroke-miterlimit="10" stroke-linecap="round" stroke-linejoin="round"></path><path d="M150.123 118.031L153.923 115.741" stroke="#F2F4D9" stroke-width="2" stroke-miterlimit="10" stroke-linecap="round" stroke-linejoin="round"></path><path d="M155.831 123.824L159.631 121.535" stroke="#F2F4D9" stroke-width="2" stroke-miterlimit="10" stroke-linecap="round" stroke-linejoin="round"></path><path opacity="0.456168" d="M212.848 233.711C210.552 232.884 210.72 229.583 213.087 228.994L283.522 211.452C288.665 210.171 294.061 210.332 299.118 211.918L324.161 219.769C325.815 220.288 325.765 222.646 324.091 223.095L250.042 242.932C245.721 244.09 241.15 243.898 236.941 242.383L212.848 233.711Z" fill="#F2F4D9"></path><path opacity="0.456168" d="M251.518 226.328C250.304 225.85 250.393 223.94 251.644 223.599L288.874 213.451C291.593 212.71 294.445 212.803 297.118 213.72L310.355 218.263C311.229 218.563 311.203 219.927 310.318 220.186L271.178 231.663C268.894 232.332 266.478 232.221 264.253 231.345L251.518 226.328Z" fill="#F2F4D9"></path><path opacity="0.456168" d="M25.0569 233.142C22.3269 232.023 22.4359 228.12 25.2239 227.155L81.6489 207.637C85.5839 206.276 89.8579 206.25 93.8089 207.562L179.752 236.101C182.59 237.044 182.718 241.01 179.946 242.133L124.01 264.787C117.009 267.623 109.177 267.607 102.187 264.743L25.0569 233.142Z" fill="#F2F4D9"></path><path d="M52.9479 234.303C51.2449 233.605 51.2529 231.189 52.9609 230.503L89.8549 215.669C92.2249 214.716 94.8569 214.635 97.2809 215.44L138.673 229.185C140.449 229.775 140.572 232.241 138.862 233.004L100.428 250.148C97.7359 251.349 94.6689 251.397 91.9409 250.279L52.9479 234.303Z" fill="#1E1E1D" stroke="#F2F4D9" stroke-width="2" stroke-miterlimit="10" stroke-linejoin="round"></path><mask id="mask0_9_458" maskUnits="userSpaceOnUse" x="51" y="214" width="90" height="38"><path d="M52.9479 234.303C51.2449 233.605 51.2529 231.189 52.9609 230.503L89.8549 215.669C92.2249 214.716 94.8569 214.635 97.2809 215.44L138.673 229.185C140.449 229.775 140.572 232.241 138.862 233.004L100.428 250.148C97.7359 251.349 94.6689 251.397 91.9409 250.279L52.9479 234.303Z" fill="white"></path></mask><g mask="url(#mask0_9_458)"><path opacity="0.450023" d="M62.8711 239.492C62.8711 239.492 87.0371 245.666 92.4011 230.269C97.7651 214.872 73.9011 221.033 82.6221 232.694C91.3421 244.356 129.232 237.379 121.66 218.715" stroke="#F2F4D9" stroke-miterlimit="10" stroke-linejoin="round"></path></g><path d="M38.3662 227.138C38.3662 225.133 41.3452 223.507 45.0202 223.507C48.6962 223.507 51.6752 225.133 51.6752 227.138C51.6752 229.143 48.6962 230.769 45.0202 230.769C41.3452 230.769 38.3662 229.143 38.3662 227.138Z" stroke="#F2F4D9" stroke-width="2" stroke-miterlimit="10" stroke-linejoin="round"></path><path d="M109.237 251.392C109.237 250.67 110.309 250.084 111.633 250.084C112.956 250.084 114.029 250.67 114.029 251.392C114.029 252.114 112.956 252.699 111.633 252.699C110.309 252.699 109.237 252.114 109.237 251.392Z" stroke="#F2F4D9" stroke-miterlimit="10" stroke-linejoin="round"></path><path d="M104.595 253.802C104.595 253.354 107.216 253.695 107.216 253.695C107.216 253.695 106.495 252.574 106.991 252.494C107.712 252.378 108.542 252.861 108.855 253.634C109.237 254.576 109.384 254.864 109.237 254.96C108.797 255.247 107.73 255.109 106.991 255.109C105.668 255.109 104.595 254.524 104.595 253.802Z" stroke="#F2F4D9" stroke-miterlimit="10" stroke-linejoin="round"></path><path d="M52.5738 223.286C51.3298 222.724 51.3908 220.937 52.6698 220.462L69.4658 214.216C69.7758 214.101 70.1128 214.089 70.4298 214.182C71.8328 214.595 71.9098 216.554 70.5428 217.075L53.9368 223.407C53.5568 223.552 53.1338 223.539 52.7638 223.372L52.5738 223.286Z" fill="#F2F4D9"></path><path d="M55.101 226.14C54.194 225.847 54.161 224.576 55.052 224.237L69.134 218.88C69.306 218.814 69.492 218.797 69.673 218.83C70.675 219.012 70.8069 220.395 69.858 220.763L55.9259 226.169C55.7099 226.253 55.472 226.26 55.251 226.189L55.101 226.14Z" fill="#F2F4D9"></path><path d="M117.304 249.818C115.901 249.753 115.926 248.206 117.34 247.556L134.801 239.525L141.447 236.469C141.695 236.355 141.958 236.287 142.212 236.272C143.76 236.179 143.878 237.829 142.374 238.528L118.509 249.627C118.196 249.773 117.858 249.844 117.546 249.829L117.304 249.818Z" fill="#F2F4D9"></path><path d="M109.385 257.859L143.335 242.658L154.207 237.789L164.95 239.908L118.673 261.064L109.385 257.859Z" fill="#F2F4D9"></path><path opacity="0.456168" d="M227.477 233.213C227.432 230.514 233.388 228.225 240.781 228.1C248.174 227.976 254.204 230.063 254.249 232.762C254.295 235.461 248.338 237.75 240.946 237.875C233.553 237.999 227.523 235.912 227.477 233.213Z" fill="#F2F4D9"></path><path opacity="0.456168" d="M82.3148 129.031C81.0188 129.031 79.9688 130.082 79.9688 131.378V151.966C79.9688 153.262 81.0188 154.312 82.3148 154.312C82.4418 154.312 87.5958 154.391 87.5958 154.391L91.1398 160.766C91.1398 160.766 94.5148 154.456 94.8328 154.404L105.091 154.312C106.387 154.312 107.438 153.262 107.438 151.966V131.378C107.438 130.082 106.387 129.031 105.091 129.031H82.3148Z" fill="#F2F4D9"></path><path opacity="0.542427" d="M83.6689 133.497C83.6689 132.835 84.206 132.298 84.868 132.298H102.539C103.201 132.298 103.737 132.835 103.737 133.497V149.488C103.737 150.15 103.201 150.687 102.539 150.687H84.868C84.206 150.687 83.6689 150.15 83.6689 149.488V133.497Z" fill="#DB6332"></path><path d="M87.276 140.947C86.553 138.203 87.921 136.855 89.528 136.532C91.135 136.209 93.703 139.654 93.703 139.654C93.703 139.654 95.855 136.467 97.455 136.625C99.619 136.84 100.366 138.602 99.606 141.284C98.847 143.966 93.703 147.191 93.703 147.191C93.703 147.191 87.999 143.69 87.276 140.947Z" fill="#F2F4D9"></path></svg>