<svg class="lg:h-80 w-52 xl:w-auto" viewBox="0 0 380 354" fill="none" xmlns="http://www.w3.org/2000/svg"><g opacity="0.618241"><path d="M298.064 225.368L325.7 235.086L315.983 262.72L288.347 253.003L298.064 225.368Z" fill="#DB6332"></path><path d="M308.939 194.444L336.574 204.162L326.857 231.796L299.221 222.078L308.939 194.444Z" fill="#95492A"></path><path d="M319.814 163.517L347.449 173.235L337.731 200.872L310.096 191.154L319.814 163.517Z" fill="#603624"></path><path d="M330.595 132.858L358.23 142.576L348.513 170.21L320.878 160.492L330.595 132.858Z" fill="#31251F"></path><mask id="mask0_9_509" maskUnits="userSpaceOnUse" x="316" y="128" width="47" height="47"><path d="M362.725 128.21H316.276V174.658H362.725V128.21Z" fill="black"></path><path d="M328.36 128.21L362.725 140.294L350.641 174.658L316.276 162.574L328.36 128.21Z" fill="white"></path></mask><g mask="url(#mask0_9_509)"><path d="M328.36 128.21L362.725 140.294L350.641 174.658L316.276 162.574L328.36 128.21Z" stroke="#F2F4D9" stroke-width="8" stroke-miterlimit="10" stroke-linecap="round" stroke-linejoin="round"></path></g><mask id="mask1_9_509" maskUnits="userSpaceOnUse" x="305" y="159" width="47" height="47"><path d="M351.865 159.095H305.416V205.543H351.865V159.095Z" fill="black"></path><path d="M317.499 159.095L351.865 171.18L339.781 205.543L305.416 193.459L317.499 159.095Z" fill="white"></path></mask><g mask="url(#mask1_9_509)"><path d="M317.499 159.095L351.865 171.18L339.781 205.543L305.416 193.459L317.499 159.095Z" stroke="#F2F4D9" stroke-width="8" stroke-miterlimit="10" stroke-linecap="round" stroke-linejoin="round"></path></g><mask id="mask2_9_509" maskUnits="userSpaceOnUse" x="294" y="189" width="48" height="47"><path d="M341.274 189.213H294.825V235.661H341.274V189.213Z" fill="black"></path><path d="M306.909 189.213L341.274 201.297L329.19 235.661L294.825 223.577L306.909 189.213Z" fill="white"></path></mask><g mask="url(#mask2_9_509)"><path d="M306.909 189.213L341.274 201.297L329.19 235.661L294.825 223.577L306.909 189.213Z" stroke="#F2F4D9" stroke-width="8" stroke-miterlimit="10" stroke-linecap="round" stroke-linejoin="round"></path></g><mask id="mask3_9_509" maskUnits="userSpaceOnUse" x="283" y="220" width="48" height="48"><path d="M330.192 220.73H283.743V267.178H330.192V220.73Z" fill="black"></path><path d="M295.826 220.73L330.191 232.814L318.108 267.178L283.743 255.093L295.826 220.73Z" fill="white"></path></mask><g mask="url(#mask3_9_509)"><path d="M295.826 220.73L330.191 232.814L318.108 267.178L283.743 255.093L295.826 220.73Z" stroke="#F2F4D9" stroke-width="8" stroke-miterlimit="10" stroke-linecap="round" stroke-linejoin="round"></path></g></g><path d="M280.647 221.894L314.64 228.517L308.017 262.507L274.025 255.885L280.647 221.894Z" fill="#DB6332"></path><path d="M288.058 183.856L322.05 190.479L315.428 224.47L281.436 217.847L288.058 183.856Z" fill="#95492A"></path><path d="M295.47 145.814L329.462 152.437L322.839 186.432L288.846 179.809L295.47 145.814Z" fill="#603624"></path><path d="M302.817 108.103L336.809 114.726L330.187 148.716L296.194 142.094L302.817 108.103Z" fill="#31251F"></path><mask id="mask4_9_509" maskUnits="userSpaceOnUse" x="291" y="103" width="51" height="51"><path d="M341.675 103.05H291.17V153.554H341.675V103.05Z" fill="black"></path><path d="M299.405 103.05L341.675 111.286L333.44 153.554L291.17 145.319L299.405 103.05Z" fill="white"></path></mask><g mask="url(#mask4_9_509)"><path d="M299.405 103.05L341.675 111.286L333.44 153.554L291.17 145.319L299.405 103.05Z" stroke="#F2F4D9" stroke-width="8" stroke-miterlimit="10" stroke-linecap="round" stroke-linejoin="round"></path></g><mask id="mask5_9_509" maskUnits="userSpaceOnUse" x="283" y="141" width="52" height="51"><path d="M334.273 141.04H283.768V191.544H334.273V141.04Z" fill="black"></path><path d="M292.003 141.04L334.274 149.276L326.039 191.544L283.768 183.308L292.003 141.04Z" fill="white"></path></mask><g mask="url(#mask5_9_509)"><path d="M292.003 141.04L334.274 149.276L326.039 191.544L283.768 183.308L292.003 141.04Z" stroke="#F2F4D9" stroke-width="8" stroke-miterlimit="10" stroke-linecap="round" stroke-linejoin="round"></path></g><mask id="mask6_9_509" maskUnits="userSpaceOnUse" x="276" y="178" width="52" height="51"><path d="M327.057 178.086H276.551V228.59H327.057V178.086Z" fill="black"></path><path d="M284.786 178.086L327.056 186.321L318.821 228.589L276.551 220.354L284.786 178.086Z" fill="white"></path></mask><g mask="url(#mask6_9_509)"><path d="M284.786 178.086L327.056 186.321L318.821 228.589L276.551 220.354L284.786 178.086Z" stroke="#F2F4D9" stroke-width="8" stroke-miterlimit="10" stroke-linecap="round" stroke-linejoin="round"></path></g><mask id="mask7_9_509" maskUnits="userSpaceOnUse" x="268" y="216" width="52" height="52"><path d="M319.503 216.852H268.998V267.356H319.503V216.852Z" fill="black"></path><path d="M277.233 216.852L319.503 225.088L311.268 267.356L268.998 259.121L277.233 216.852Z" fill="white"></path></mask><g mask="url(#mask7_9_509)"><path d="M277.233 216.852L319.503 225.088L311.268 267.356L268.998 259.121L277.233 216.852Z" stroke="#F2F4D9" stroke-width="8" stroke-miterlimit="10" stroke-linecap="round" stroke-linejoin="round"></path></g><path d="M54.2578 95.8921C54.2578 90.4271 58.6878 85.9971 64.1528 85.9971H293.936C299.401 85.9971 303.831 90.4271 303.831 95.8921V258.884C303.831 264.348 299.401 268.778 293.936 268.778H64.1528C58.6878 268.778 54.2578 264.348 54.2578 258.884V95.8921Z" fill="#2B2B2B" stroke="#F2F3D9" stroke-width="4" stroke-miterlimit="10" stroke-linejoin="round"></path><path d="M54.064 95.118C54.064 89.653 58.494 85.2219 63.96 85.2219H294.024C299.49 85.2219 303.921 89.653 303.921 95.118C303.921 95.118 303.943 107.133 303.934 107.133H54.327C54.17 107.133 54.064 95.118 54.064 95.118Z" fill="#F2F3D9" stroke="#F2F4D9" stroke-width="4" stroke-miterlimit="10" stroke-linejoin="round"></path><path d="M258.165 95.5049C258.165 92.9449 260.241 90.8699 262.8 90.8699C265.36 90.8699 267.435 92.9449 267.435 95.5049C267.435 98.0649 265.36 100.14 262.8 100.14C260.241 100.14 258.165 98.0649 258.165 95.5049Z" fill="#FDC4AD"></path><path d="M273.097 95.5049C273.097 92.9449 275.172 90.8699 277.732 90.8699C280.291 90.8699 282.367 92.9449 282.367 95.5049C282.367 98.0649 280.291 100.14 277.732 100.14C275.172 100.14 273.097 98.0649 273.097 95.5049Z" fill="#E19577"></path><path d="M286.958 95.5049C286.958 92.9449 289.034 90.8699 291.593 90.8699C294.153 90.8699 296.228 92.9449 296.228 95.5049C296.228 98.0649 294.153 100.14 291.593 100.14C289.034 100.14 286.958 98.0649 286.958 95.5049Z" fill="#DB6332"></path><path d="M103.874 151.334H254.126V224.666H103.874V151.334Z" stroke="#F2F4D9" stroke-width="2" stroke-miterlimit="10" stroke-linejoin="round"></path><path d="M100.755 152.509C100.755 150.787 102.152 149.39 103.874 149.39C105.597 149.39 106.993 150.787 106.993 152.509C106.993 154.232 105.597 155.628 103.874 155.628C102.152 155.628 100.755 154.232 100.755 152.509Z" fill="#DB6332" stroke="#F2F4D9" stroke-width="2" stroke-miterlimit="10" stroke-linejoin="round"></path><path d="M100.755 224.666C100.755 222.943 102.152 221.547 103.874 221.547C105.597 221.547 106.993 222.943 106.993 224.666C106.993 226.388 105.597 227.785 103.874 227.785C102.152 227.785 100.755 226.388 100.755 224.666Z" fill="#DB6332" stroke="#F2F4D9" stroke-width="2" stroke-miterlimit="10" stroke-linejoin="round"></path><path d="M251.007 224.666C251.007 222.943 252.403 221.547 254.126 221.547C255.848 221.547 257.245 222.943 257.245 224.666C257.245 226.388 255.848 227.785 254.126 227.785C252.403 227.785 251.007 226.388 251.007 224.666Z" fill="#DB6332" stroke="#F2F4D9" stroke-width="2" stroke-miterlimit="10" stroke-linejoin="round"></path><path d="M247.461 134.263C247.461 134.263 248.117 156.535 270.438 160.746" stroke="#F2F4D9" stroke-miterlimit="10" stroke-linejoin="round"></path><path d="M251.007 151.334C251.007 149.612 252.403 148.215 254.126 148.215C255.848 148.215 257.245 149.612 257.245 151.334C257.245 153.057 255.848 154.453 254.126 154.453C252.403 154.453 251.007 153.057 251.007 151.334Z" fill="#DB6332" stroke="#F2F4D9" stroke-width="2" stroke-miterlimit="10" stroke-linejoin="round"></path><path d="M245.902 135.489C245.902 134.628 246.6 133.929 247.461 133.929C248.323 133.929 249.021 134.628 249.021 135.489C249.021 136.35 248.323 137.048 247.461 137.048C246.6 137.048 245.902 136.35 245.902 135.489Z" fill="#DB6332" stroke="#F2F4D9" stroke-miterlimit="10" stroke-linejoin="round"></path><path d="M268.879 160.559C268.879 159.698 269.577 159 270.438 159C271.3 159 271.998 159.698 271.998 160.559C271.998 161.421 271.3 162.119 270.438 162.119C269.577 162.119 268.879 161.421 268.879 160.559Z" fill="#DB6332" stroke="#F2F4D9" stroke-width="1.01" stroke-miterlimit="10" stroke-linejoin="round"></path><path d="M179 151.334V129.489" stroke="#DB6332" stroke-miterlimit="10" stroke-linejoin="round"></path><path d="M176.441 151.334C176.441 149.921 177.586 148.775 179 148.775C180.414 148.775 181.559 149.921 181.559 151.334C181.559 152.748 180.414 153.894 179 153.894C177.586 153.894 176.441 152.748 176.441 151.334Z" fill="#DB6332" stroke="#F2F4D9" stroke-width="2" stroke-miterlimit="10" stroke-linejoin="round"></path><path d="M175.515 132.004C175.515 130.079 177.075 128.519 179 128.519C180.925 128.519 182.485 130.079 182.485 132.004C182.485 133.929 180.925 135.489 179 135.489C177.075 135.489 175.515 133.929 175.515 132.004Z" fill="#F2F4D9" stroke="#DB6332" stroke-miterlimit="10" stroke-linejoin="round"></path><path d="M176.441 225.225C176.441 223.812 177.586 222.666 179 222.666C180.414 222.666 181.559 223.812 181.559 225.225C181.559 226.639 180.414 227.785 179 227.785C177.586 227.785 176.441 226.639 176.441 225.225Z" fill="#DB6332" stroke="#F2F4D9" stroke-width="2" stroke-miterlimit="10" stroke-linejoin="round"></path><path d="M251.566 188C251.566 186.586 252.712 185.441 254.126 185.441C255.539 185.441 256.685 186.586 256.685 188C256.685 189.414 255.539 190.559 254.126 190.559C252.712 190.559 251.566 189.414 251.566 188Z" fill="#DB6332" stroke="#F2F4D9" stroke-width="2" stroke-miterlimit="10" stroke-linejoin="round"></path><path d="M101.315 188C101.315 186.586 102.461 185.441 103.874 185.441C105.288 185.441 106.434 186.586 106.434 188C106.434 189.414 105.288 190.559 103.874 190.559C102.461 190.559 101.315 189.414 101.315 188Z" fill="#DB6332" stroke="#F2F4D9" stroke-width="2" stroke-miterlimit="10" stroke-linejoin="round"></path><path d="M134.621 203.266C137.074 203.266 139.129 202.789 140.785 201.836C142.441 200.883 143.27 199.055 143.27 196.352C143.27 193.664 142.301 191.828 140.363 190.844C138.426 189.859 135.957 189.367 132.957 189.367C132.223 189.367 131.758 189.367 131.563 189.367C131.367 189.367 131.066 189.359 130.66 189.344V201.297C130.66 202.125 130.895 202.66 131.363 202.902C131.832 203.145 132.918 203.266 134.621 203.266ZM121.168 204.133C123.105 204.023 124.359 203.723 124.93 203.23C125.5 202.738 125.785 201.594 125.785 199.797V178.445C125.785 176.68 125.5 175.543 124.93 175.035C124.359 174.527 123.105 174.227 121.168 174.133V173.242H134.621C138.465 173.242 141.516 173.859 143.773 175.094C146.031 176.328 147.16 178.453 147.16 181.469C147.16 183.734 146.371 185.453 144.793 186.625C143.902 187.297 142.566 187.852 140.785 188.289C142.988 188.82 144.871 189.707 146.434 190.949C147.996 192.191 148.777 193.93 148.777 196.164C148.777 199.914 147.043 202.492 143.574 203.898C141.746 204.633 139.496 205 136.824 205H121.168V204.133ZM135.23 187.445C136.84 187.414 138.176 187.156 139.238 186.672C141.27 185.734 142.285 184.055 142.285 181.633C142.285 178.773 141.113 176.844 138.77 175.844C137.473 175.297 135.504 175.023 132.863 175.023C131.863 175.023 131.246 175.109 131.012 175.281C130.777 175.453 130.66 175.922 130.66 176.688V187.516L135.23 187.445Z" fill="#DB6332"></path><path d="M152.574 204.227C154.012 204.102 154.965 203.848 155.434 203.465C155.902 203.082 156.137 202.266 156.137 201.016V190.445C156.137 188.898 155.992 187.793 155.703 187.129C155.414 186.465 154.887 186.133 154.121 186.133C153.965 186.133 153.758 186.152 153.5 186.191C153.242 186.23 152.973 186.281 152.691 186.344V185.57C153.582 185.258 154.496 184.938 155.434 184.609C156.371 184.281 157.02 184.047 157.379 183.906C158.16 183.609 158.965 183.273 159.793 182.898C159.902 182.898 159.969 182.937 159.992 183.016C160.016 183.094 160.027 183.258 160.027 183.508V187.352C161.027 185.961 161.992 184.875 162.922 184.094C163.852 183.312 164.816 182.922 165.816 182.922C166.613 182.922 167.262 183.16 167.762 183.637C168.262 184.113 168.512 184.711 168.512 185.43C168.512 186.07 168.32 186.609 167.938 187.047C167.555 187.484 167.074 187.703 166.496 187.703C165.902 187.703 165.305 187.43 164.703 186.883C164.102 186.336 163.629 186.062 163.285 186.062C162.738 186.062 162.066 186.504 161.27 187.387C160.473 188.27 160.074 189.18 160.074 190.117V200.688C160.074 202.031 160.387 202.965 161.012 203.488C161.637 204.012 162.676 204.258 164.129 204.227V205H152.574V204.227Z" fill="#DB6332"></path><path d="M182.105 192.016C180.309 192.609 178.824 193.266 177.652 193.984C175.402 195.375 174.277 196.953 174.277 198.719C174.277 200.141 174.746 201.187 175.684 201.859C176.293 202.297 176.973 202.516 177.723 202.516C178.754 202.516 179.742 202.227 180.688 201.648C181.633 201.07 182.105 200.336 182.105 199.445V192.016ZM170.105 200.336C170.105 198.07 171.238 196.18 173.504 194.664C174.941 193.727 177.809 192.453 182.105 190.844V188.852C182.105 187.258 181.949 186.148 181.637 185.523C181.105 184.477 180.004 183.953 178.332 183.953C177.535 183.953 176.777 184.156 176.059 184.562C175.34 184.984 174.98 185.562 174.98 186.297C174.98 186.484 175.02 186.801 175.098 187.246C175.176 187.691 175.215 187.977 175.215 188.102C175.215 188.977 174.926 189.586 174.348 189.93C174.02 190.133 173.629 190.234 173.176 190.234C172.473 190.234 171.934 190.004 171.559 189.543C171.184 189.082 170.996 188.57 170.996 188.008C170.996 186.914 171.672 185.77 173.023 184.574C174.375 183.379 176.355 182.781 178.965 182.781C181.996 182.781 184.051 183.766 185.129 185.734C185.707 186.813 185.996 188.383 185.996 190.445V199.844C185.996 200.75 186.059 201.375 186.184 201.719C186.387 202.328 186.809 202.633 187.449 202.633C187.809 202.633 188.105 202.578 188.34 202.469C188.574 202.359 188.98 202.094 189.559 201.672V202.891C189.059 203.5 188.52 204 187.941 204.391C187.066 204.984 186.176 205.281 185.27 205.281C184.207 205.281 183.438 204.938 182.961 204.25C182.484 203.562 182.223 202.742 182.176 201.789C180.988 202.82 179.973 203.586 179.129 204.086C177.707 204.93 176.355 205.352 175.074 205.352C173.73 205.352 172.566 204.879 171.582 203.934C170.598 202.988 170.105 201.789 170.105 200.336Z" fill="#DB6332"></path><path d="M190.52 204.344C191.629 204.203 192.406 203.926 192.852 203.512C193.297 203.098 193.52 202.172 193.52 200.734V188.852C193.52 187.852 193.426 187.148 193.238 186.742C192.941 186.148 192.332 185.852 191.41 185.852C191.27 185.852 191.125 185.859 190.977 185.875C190.828 185.891 190.645 185.914 190.426 185.945V185.125C191.066 184.937 192.582 184.453 194.973 183.672L197.176 182.945C197.285 182.945 197.352 182.984 197.375 183.062C197.398 183.141 197.41 183.25 197.41 183.391V186.836C198.848 185.492 199.973 184.57 200.785 184.07C202.004 183.305 203.27 182.922 204.582 182.922C205.645 182.922 206.613 183.227 207.488 183.836C209.176 185.023 210.02 187.141 210.02 190.188V201.133C210.02 202.258 210.246 203.07 210.699 203.57C211.152 204.07 211.91 204.328 212.973 204.344V205H202.965V204.344C204.105 204.187 204.902 203.871 205.355 203.395C205.809 202.918 206.035 201.883 206.035 200.289V190.281C206.035 188.937 205.785 187.824 205.285 186.941C204.785 186.059 203.863 185.617 202.52 185.617C201.598 185.617 200.66 185.93 199.707 186.555C199.176 186.914 198.488 187.508 197.645 188.336V201.461C197.645 202.586 197.895 203.34 198.395 203.723C198.895 204.105 199.684 204.312 200.762 204.344V205H190.52V204.344Z" fill="#DB6332"></path><path d="M225.02 182.852C226.16 182.852 227.207 183.102 228.16 183.602C228.785 183.93 229.387 184.383 229.965 184.961V177.508C229.965 176.555 229.859 175.898 229.648 175.539C229.437 175.18 228.934 175 228.137 175C227.949 175 227.785 175.008 227.645 175.023C227.504 175.039 227.191 175.07 226.707 175.117V174.344L228.629 173.852C229.332 173.664 230.035 173.469 230.738 173.266C231.441 173.062 232.059 172.867 232.59 172.68C232.84 172.602 233.254 172.453 233.832 172.234L233.973 172.281L233.926 174.742C233.91 175.633 233.895 176.551 233.879 177.496C233.863 178.441 233.855 179.375 233.855 180.297L233.809 199.445C233.809 200.461 233.934 201.172 234.184 201.578C234.434 201.984 235.098 202.188 236.176 202.188C236.348 202.188 236.52 202.184 236.691 202.176C236.863 202.168 237.035 202.148 237.207 202.117V202.891C237.113 202.922 235.98 203.312 233.809 204.062L230.129 205.445L229.965 205.234V202.352C229.09 203.305 228.332 203.984 227.691 204.391C226.551 205.094 225.23 205.445 223.73 205.445C221.074 205.445 218.922 204.418 217.273 202.363C215.625 200.309 214.801 197.93 214.801 195.227C214.801 191.836 215.789 188.926 217.766 186.496C219.742 184.066 222.16 182.852 225.02 182.852ZM225.887 202.914C227.105 202.914 228.09 202.555 228.84 201.836C229.59 201.117 229.965 200.438 229.965 199.797V189.742C229.965 187.711 229.422 186.277 228.336 185.441C227.25 184.605 226.191 184.188 225.16 184.188C223.191 184.188 221.66 185.059 220.566 186.801C219.473 188.543 218.926 190.687 218.926 193.234C218.926 195.75 219.508 197.992 220.672 199.961C221.836 201.93 223.574 202.914 225.887 202.914Z" fill="#DB6332"></path><path d="M23.9932 200.076C23.9932 194.266 28.7022 189.556 34.5102 189.556H73.5142C79.3222 189.556 84.0312 194.266 84.0312 200.076V239.08C84.0312 244.886 79.3222 249.596 73.5142 249.596H34.5102C28.7022 249.596 23.9932 244.886 23.9932 239.08V200.076Z" fill="#1E1E1D" stroke="#FBFCE1" stroke-width="2" stroke-miterlimit="10" stroke-linejoin="round"></path><path d="M23.9932 200.076C23.9932 194.266 28.7022 189.556 34.5102 189.556H73.5142C79.3222 189.556 84.0312 194.266 84.0312 200.076V229.734C84.0312 229.734 81.5901 222.222 64.1671 223.808C59.4411 224.241 56.5302 225.304 50.8072 225.477C47.9192 225.568 42.2912 222.077 35.5872 225.213C28.8842 228.349 23.9932 238.021 23.9932 238.021V200.076Z" fill="#DB6332" stroke="#FBFCE1" stroke-width="2" stroke-miterlimit="10" stroke-linejoin="round"></path><path d="M24.125 238.157C24.125 238.157 39.425 199.516 73.698 249.065L60.781 232.552C60.781 232.552 75.169 218.443 84.134 229.812" stroke="#FBFCE1" stroke-width="2" stroke-miterlimit="10" stroke-linejoin="round"></path><path d="M46.7991 224.224C48.3661 218.463 53.4511 214.248 59.4831 214.248C65.8101 214.248 71.0961 218.888 72.3721 225.077C72.4111 225.267 69.0521 226.54 65.7201 228.807C63.7891 230.117 61.4061 232.186 60.8961 233.476C60.7421 233.863 64.0251 237.168 64.0251 237.168C64.0251 237.168 66.5521 239.558 66.5251 239.574C66.3361 239.702 66.2591 239.554 65.7551 239.022C65.2081 238.449 64.2221 237.46 63.7251 236.941C61.7961 234.922 59.8491 232.73 56.3381 229.721C52.5821 226.503 46.6641 224.719 46.7991 224.224Z" fill="#FCFDE2" stroke="#FBFCE1" stroke-width="2" stroke-miterlimit="10" stroke-linejoin="round"></path><path opacity="0.0286008" d="M67.6748 194.674H100.755V227.756H67.6748V194.674Z" fill="#DB6332"></path><path d="M23.8369 126.824C23.8369 121.03 28.4159 116.334 34.0639 116.334H80.3009C85.9489 116.334 90.5279 121.03 90.5279 126.824V166.241C90.5279 172.035 85.9489 176.731 80.3009 176.731H34.0639C28.4159 176.731 23.8369 172.035 23.8369 166.241V126.824Z" fill="#31251F" stroke="#DB6332" stroke-width="2" stroke-miterlimit="10" stroke-linejoin="round"></path><path d="M41.7607 158.28H32.5127V156.166H35.4567L45.2327 131.86H49.2337L58.1787 156.166H61.0087V158.28H50.2147V156.166H53.5737L51.1207 149.524H41.0807L38.5147 156.166H41.7607V158.28ZM41.9487 147.41H50.4787L47.3837 138.692L46.4407 134.691H46.2887L45.1947 138.767L41.9487 147.41Z" fill="#DB6332"></path><path d="M78.5219 153.034C78.5219 153.612 78.5348 154.197 78.5598 154.789C78.5848 155.38 78.6229 155.915 78.6729 156.393H81.1638V158.28H75.2389L74.8608 154.694H74.6718C74.5458 155.198 74.3138 155.688 73.9738 156.166C73.6338 156.644 73.2069 157.072 72.6909 157.45C72.1749 157.827 71.5648 158.129 70.8598 158.355C70.1558 158.582 69.3758 158.695 68.5198 158.695C67.6648 158.695 66.8779 158.569 66.1609 158.318C65.4439 158.066 64.8218 157.714 64.2928 157.261C63.7648 156.808 63.3558 156.261 63.0668 155.619C62.7768 154.978 62.6318 154.254 62.6318 153.449C62.6318 152.216 62.8899 151.197 63.4059 150.392C63.9219 149.587 64.6828 148.951 65.6888 148.486C66.6958 148.02 67.9538 147.687 69.4638 147.485C70.9738 147.284 72.7348 147.171 74.7478 147.146C74.7978 146.743 74.8228 146.36 74.8228 145.995C74.8228 145.63 74.8228 145.271 74.8228 144.919C74.8228 143.359 74.5589 142.17 74.0309 141.352C73.5019 140.534 72.5589 140.126 71.1999 140.126C70.6969 140.126 70.1558 140.151 69.5768 140.201C68.9978 140.251 68.4699 140.403 67.9919 140.654V144.127H64.5948V139.937C65.5008 139.459 66.5699 139.031 67.8029 138.654C69.0359 138.276 70.4829 138.087 72.1429 138.087C73.5779 138.087 74.7288 138.27 75.5968 138.635C76.4648 139 77.1318 139.478 77.5968 140.069C78.0628 140.66 78.3648 141.327 78.5028 142.069C78.6418 142.812 78.7108 143.548 78.7108 144.277C78.7108 145.863 78.6799 147.379 78.6169 148.826C78.5529 150.272 78.5219 151.675 78.5219 153.034ZM70.2568 156.166C70.8598 156.166 71.4008 156.072 71.8788 155.883C72.3568 155.695 72.7789 155.456 73.1439 155.166C73.5089 154.877 73.8229 154.556 74.0869 154.204C74.3509 153.852 74.5718 153.512 74.7478 153.185V148.693C73.1118 148.693 71.7848 148.8 70.7658 149.014C69.7468 149.228 68.9478 149.511 68.3688 149.863C67.7908 150.215 67.3938 150.637 67.1798 151.128C66.9658 151.618 66.8589 152.14 66.8589 152.694C66.8589 153.826 67.1608 154.688 67.7658 155.28C68.3688 155.871 69.1998 156.166 70.2568 156.166Z" fill="#DB6332"></path><path d="M85.3341 169.526L84.7471 185.515L90.1931 182.742L93.0451 188.684L96.1051 186.719L92.7091 181.329L98.4031 178.143L85.3341 169.526Z" fill="#F2F3D9" stroke="#DB6332" stroke-width="2" stroke-miterlimit="10" stroke-linejoin="round"></path><path d="M80.9391 170.313L76.2852 171.86" stroke="#F2F4D9" stroke-miterlimit="10" stroke-linecap="round" stroke-linejoin="round"></path><path d="M81.0132 167.131L76.8652 165.19" stroke="#F2F4D9" stroke-miterlimit="10" stroke-linecap="round" stroke-linejoin="round"></path><path d="M84.1711 165.19L82.8491 161.096" stroke="#F2F4D9" stroke-miterlimit="10" stroke-linecap="round" stroke-linejoin="round"></path><path d="M87.6143 165.656L90.3392 163.143" stroke="#F2F4D9" stroke-miterlimit="10" stroke-linecap="round" stroke-linejoin="round"></path><path d="M274.158 162.119C274.158 162.119 278.184 165.375 281.626 167.209C285.067 169.043 287.924 169.455 287.924 169.455C287.924 169.455 286.8 172.657 286.533 175.755C286.266 178.852 286.857 181.845 286.857 181.845L280.742 184.569C280.742 184.569 278.764 182.052 276.188 180.229C273.612 178.405 270.438 177.275 270.438 177.275C270.438 177.275 271.93 174.897 272.859 171.108C273.789 167.319 274.158 162.119 274.158 162.119Z" fill="#DB6332" stroke="#F2F4D9" stroke-miterlimit="10" stroke-linejoin="round"></path><path d="M280.141 175.396L274.102 162.144" stroke="#F2F4D9" stroke-width="0.5" stroke-miterlimit="10" stroke-linejoin="round"></path><path d="M281.744 174.453C281.544 175.691 280.379 176.531 279.142 176.331C277.904 176.131 277.064 174.966 277.264 173.728C277.464 172.491 278.629 171.651 279.867 171.851C281.104 172.051 281.944 173.216 281.744 174.453Z" fill="#F2F3D9" stroke="#F2F4D9" stroke-width="0.01" stroke-miterlimit="10" stroke-linejoin="round"></path><path d="M281.131 186.845L288.835 183.419L290.041 186.129L282.336 189.556L281.131 186.845Z" fill="#DB6332" stroke="#F2F4D9" stroke-miterlimit="10" stroke-linejoin="round"></path></svg>