<svg class="" viewBox="0 0 380 354" fill="none" xmlns="http://www.w3.org/2000/svg"><path d="M65.2578 95.8921C65.2578 90.4271 69.6878 85.9971 75.1528 85.9971H304.936C310.401 85.9971 314.831 90.4271 314.831 95.8921V258.884C314.831 264.348 310.401 268.778 304.936 268.778H75.1528C69.6878 268.778 65.2578 264.348 65.2578 258.884V95.8921Z" fill="#2B2B2B" stroke="#F2F3D9" stroke-width="4" stroke-miterlimit="10" stroke-linejoin="round"></path><path d="M65.064 95.118C65.064 89.653 69.494 85.2219 74.96 85.2219H305.024C310.49 85.2219 314.921 89.653 314.921 95.118C314.921 95.118 314.943 107.133 314.934 107.133H65.327C65.17 107.133 65.064 95.118 65.064 95.118Z" fill="#F2F3D9" stroke="#F2F4D9" stroke-width="4" stroke-miterlimit="10" stroke-linejoin="round"></path><path d="M269.165 95.5049C269.165 92.9449 271.241 90.8699 273.8 90.8699C276.36 90.8699 278.435 92.9449 278.435 95.5049C278.435 98.0649 276.36 100.14 273.8 100.14C271.241 100.14 269.165 98.0649 269.165 95.5049Z" fill="#FDC4AD"></path><path d="M284.097 95.5049C284.097 92.9449 286.172 90.8699 288.732 90.8699C291.291 90.8699 293.367 92.9449 293.367 95.5049C293.367 98.0649 291.291 100.14 288.732 100.14C286.172 100.14 284.097 98.0649 284.097 95.5049Z" fill="#E19577"></path><path d="M297.958 95.5049C297.958 92.9449 300.034 90.8699 302.593 90.8699C305.153 90.8699 307.228 92.9449 307.228 95.5049C307.228 98.0649 305.153 100.14 302.593 100.14C300.034 100.14 297.958 98.0649 297.958 95.5049Z" fill="#DB6332"></path><path opacity="0.634539" d="M135.986 122.225C135.986 122.225 135.986 196.163 135.986 229.27C135.986 262.378 135.986 254.654 135.986 254.654" stroke="#F2F3D9" stroke-width="2" stroke-miterlimit="10" stroke-linecap="round" stroke-linejoin="round"></path><path d="M98.0112 135.037V138.354L86.2222 133.244V130.409L98.0112 125.299V128.639L89.7962 131.803L98.0112 135.037Z" fill="#F2F3D9"></path><path d="M105.3 125.229L102.019 138.741C101.91 139.186 101.814 139.537 101.732 139.795C101.65 140.053 101.525 140.254 101.357 140.399C101.189 140.543 100.945 140.616 100.624 140.616C99.8282 140.616 99.4292 140.272 99.4292 139.584C99.4292 139.405 99.5072 138.955 99.6642 138.237L102.933 124.725C103.105 124.006 103.269 123.514 103.425 123.248C103.581 122.983 103.886 122.85 104.339 122.85C104.73 122.85 105.029 122.944 105.236 123.131C105.443 123.319 105.546 123.576 105.546 123.905C105.546 124.147 105.464 124.588 105.3 125.229Z" fill="#F2F3D9"></path><path d="M118.742 133.244L106.953 138.377V135.061L115.191 131.826L106.953 128.639V125.346L118.742 130.432V133.244Z" fill="#F2F3D9"></path><path d="M75.7329 166.173C75.7329 164.749 76.8869 163.594 78.3119 163.594H98.7489C100.173 163.594 101.328 164.749 101.328 166.173V166.23C101.328 167.654 100.173 168.809 98.7489 168.809H78.3119C76.8869 168.809 75.7329 167.654 75.7329 166.23V166.173Z" fill="#6F6D6D"></path><path d="M102.767 166.173C102.767 164.749 103.922 163.594 105.346 163.594H124.582C126.006 163.594 127.161 164.749 127.161 166.173C127.161 167.598 126.006 168.752 124.582 168.752H105.346C103.922 168.752 102.767 167.598 102.767 166.173Z" fill="#6F6D6D"></path><path d="M75.7329 177.658C75.7329 176.234 76.8869 175.079 78.3119 175.079H89.1179C90.5419 175.079 91.6969 176.234 91.6969 177.658C91.6969 179.082 90.5419 180.237 89.1179 180.237H78.3119C76.8869 180.237 75.7329 179.082 75.7329 177.658Z" fill="#6F6D6D"></path><path d="M75.4951 224.854C75.4951 223.429 76.6491 222.275 78.0741 222.275H89.1181C90.5421 222.275 91.6971 223.429 91.6971 224.854C91.6971 226.278 90.5421 227.433 89.1181 227.433H78.0741C76.6491 227.433 75.4951 226.278 75.4951 224.854Z" fill="#DB6332"></path><path d="M114.097 177.658C114.097 176.234 115.251 175.079 116.676 175.079H124.582C126.006 175.079 127.161 176.234 127.161 177.658C127.161 179.082 126.006 180.237 124.582 180.237H116.676C115.251 180.237 114.097 179.082 114.097 177.658Z" fill="#6F6D6D"></path><path d="M93.0952 177.658C93.0952 176.234 94.2502 175.079 95.6742 175.079H110.129C111.554 175.079 112.708 176.234 112.708 177.658C112.708 179.082 111.554 180.237 110.129 180.237H95.6742C94.2502 180.237 93.0952 179.082 93.0952 177.658Z" fill="#DB6332"></path><path d="M93.0952 224.854C93.0952 223.429 94.2422 222.275 95.6562 222.275H124.6C126.014 222.275 127.161 223.429 127.161 224.854C127.161 226.278 126.014 227.433 124.6 227.433H95.6562C94.2422 227.433 93.0952 226.278 93.0952 224.854Z" fill="#6F6D6D"></path><path d="M109.131 189.16C109.131 187.735 110.286 186.581 111.71 186.581H124.582C126.006 186.581 127.161 187.735 127.161 189.16C127.161 190.584 126.006 191.739 124.582 191.739H111.71C110.286 191.739 109.131 190.584 109.131 189.16Z" fill="#DB6332"></path><path d="M75.7329 189.16C75.7329 187.735 76.8869 186.581 78.3119 186.581H105.082C106.506 186.581 107.66 187.735 107.66 189.16C107.66 190.584 106.506 191.739 105.082 191.739H78.3119C76.8869 191.739 75.7329 190.584 75.7329 189.16Z" fill="#6F6D6D"></path><path opacity="0.798309" d="M75.4951 200.91C75.4951 199.486 76.6491 198.331 78.0741 198.331H124.582C126.006 198.331 127.161 199.486 127.161 200.91C127.161 202.335 126.006 203.489 124.582 203.489H78.0741C76.6491 203.489 75.4951 202.335 75.4951 200.91Z" fill="#F2F3D9"></path><path d="M75.4951 212.328C75.4951 210.904 76.6491 209.749 78.0741 209.749H94.9571C96.3821 209.749 97.5361 210.904 97.5361 212.328C97.5361 213.753 96.3821 214.907 94.9571 214.907H78.0741C76.6491 214.907 75.4951 213.753 75.4951 212.328Z" fill="#6F6D6D"></path><path d="M99.2764 212.328C99.2764 210.904 100.431 209.749 101.855 209.749H112.385C113.809 209.749 114.964 210.904 114.964 212.328C114.964 213.753 113.809 214.907 112.385 214.907H101.855C100.431 214.907 99.2764 213.753 99.2764 212.328Z" fill="#6F6D6D"></path><path d="M116.285 212.328C116.285 210.904 117.44 209.749 118.864 209.749H124.582C126.006 209.749 127.161 210.904 127.161 212.328C127.161 213.753 126.006 214.907 124.582 214.907H118.864C117.44 214.907 116.285 213.753 116.285 212.328Z" fill="#6F6D6D"></path><path d="M75.4951 235.727C75.4951 234.302 76.6491 233.148 78.0741 233.148H109.892C111.316 233.148 112.47 234.302 112.47 235.727C112.47 237.151 111.316 238.306 109.892 238.306H78.0741C76.6491 238.306 75.4951 237.151 75.4951 235.727Z" fill="#6F6D6D"></path><path d="M149.37 234.437C149.37 236.574 151.102 238.306 153.239 238.306H219.292C221.429 238.306 223.161 236.574 223.161 234.437V234.353C223.161 232.216 221.429 230.484 219.292 230.484H153.239C151.102 230.484 149.37 232.216 149.37 234.353V234.437Z" fill="#6F6D6D"></path><path d="M227.311 234.437C227.311 236.574 229.043 238.306 231.179 238.306H293.768C295.905 238.306 297.637 236.574 297.637 234.437C297.637 232.301 295.905 230.569 293.768 230.569H231.179C229.043 230.569 227.311 232.301 227.311 234.437Z" fill="#6F6D6D"></path><path d="M149.37 217.211C149.37 219.347 151.102 221.079 153.239 221.079H191.526C193.662 221.079 195.394 219.347 195.394 217.211C195.394 215.074 193.662 213.342 191.526 213.342H153.239C151.102 213.342 149.37 215.074 149.37 217.211Z" fill="#6F6D6D"></path><path d="M148.685 146.417C148.685 148.553 150.417 150.285 152.553 150.285H191.526C193.662 150.285 195.394 148.553 195.394 146.417C195.394 144.28 193.662 142.548 191.526 142.548H152.553C150.417 142.548 148.685 144.28 148.685 146.417Z" fill="#DB6332"></path><path d="M259.973 217.211C259.973 219.347 261.705 221.079 263.842 221.079H293.768C295.905 221.079 297.637 219.347 297.637 217.211C297.637 215.074 295.905 213.342 293.768 213.342H263.842C261.705 213.342 259.973 215.074 259.973 217.211Z" fill="#6F6D6D"></path><path opacity="0.78798" d="M199.427 217.211C199.427 219.347 201.159 221.079 203.295 221.079H252.102C254.239 221.079 255.971 219.347 255.971 217.211C255.971 215.074 254.239 213.342 252.102 213.342H203.295C201.159 213.342 199.427 215.074 199.427 217.211Z" fill="#F2F3D9"></path><path d="M199.427 146.417C199.427 148.553 201.159 150.285 203.295 150.285H293.768C295.905 150.285 297.637 148.553 297.637 146.417C297.637 144.28 295.905 142.548 293.768 142.548H203.295C201.159 142.548 199.427 144.28 199.427 146.417Z" fill="#6F6D6D"></path><path d="M245.659 199.958C245.659 202.094 247.391 203.826 249.527 203.826H293.768C295.905 203.826 297.637 202.094 297.637 199.958C297.637 197.821 295.905 196.089 293.768 196.089H249.527C247.391 196.089 245.659 197.821 245.659 199.958Z" fill="#DB6332"></path><path d="M149.37 199.958C149.37 202.094 151.102 203.826 153.239 203.826H237.549C239.686 203.826 241.418 202.094 241.418 199.958C241.418 197.821 239.686 196.089 237.549 196.089H153.239C151.102 196.089 149.37 197.821 149.37 199.958Z" fill="#6F6D6D"></path><path d="M148.685 182.332C148.685 184.468 150.417 186.2 152.553 186.2H293.768C295.905 186.2 297.637 184.468 297.637 182.332C297.637 180.195 295.905 178.463 293.768 178.463H152.553C150.417 178.463 148.685 180.195 148.685 182.332Z" fill="#DB6332"></path><path d="M148.685 165.205C148.685 167.341 150.417 169.073 152.553 169.073H208.362C210.498 169.073 212.23 167.341 212.23 165.205C212.23 163.068 210.498 161.336 208.362 161.336H152.553C150.417 161.336 148.685 163.068 148.685 165.205Z" fill="#6F6D6D"></path><path d="M217.246 165.205C217.246 167.341 218.978 169.073 221.114 169.073H258.606C260.742 169.073 262.474 167.341 262.474 165.205C262.474 163.068 260.742 161.336 258.606 161.336H221.114C218.978 161.336 217.246 163.068 217.246 165.205Z" fill="#6F6D6D"></path><path opacity="0.78798" d="M266.282 165.205C266.282 167.341 268.014 169.073 270.151 169.073H293.768C295.905 169.073 297.637 167.341 297.637 165.205C297.637 163.068 295.905 161.336 293.768 161.336H270.151C268.014 161.336 266.282 163.068 266.282 165.205Z" fill="#F2F3D9"></path><path d="M148.685 130.107C148.685 132.244 150.417 133.976 152.553 133.976H251.417C253.553 133.976 255.285 132.244 255.285 130.107C255.285 127.971 253.553 126.239 251.417 126.239H152.553C150.417 126.239 148.685 127.971 148.685 130.107Z" fill="#6F6D6D"></path><path opacity="0.49564" d="M31.998 102.611C31.998 94.1119 40.2401 87.2219 50.4071 87.2219H199.651C209.818 87.2219 218.06 94.1119 218.06 102.611C218.06 111.11 209.818 118 199.651 118H50.4071C40.2401 118 31.998 111.11 31.998 102.611Z" fill="#1E1E1D"></path><path opacity="0.63211" d="M232.592 229.409C232.592 204.306 252.943 183.955 278.046 183.955C303.149 183.955 323.5 204.306 323.5 229.409C323.5 254.512 303.149 274.863 278.046 274.863C252.943 274.863 232.592 254.512 232.592 229.409Z" fill="#1E1E1D"></path><path opacity="0.49564" d="M242.775 138.739C242.775 135.156 245.679 132.251 249.262 132.251H332.023C335.606 132.251 338.511 135.156 338.511 138.739V150.426C338.511 154.009 335.606 156.913 332.023 156.913H249.262C245.679 156.913 242.775 154.009 242.775 150.426V138.739Z" fill="#F2F3D9"></path><path d="M303.659 196.212C283.144 184.852 257.307 192.272 245.947 212.788C234.586 233.303 242.004 259.146 262.519 270.506C283.035 281.866 308.881 274.442 320.241 253.927C331.601 233.412 324.174 207.572 303.659 196.212ZM294.521 212.714C305.923 219.027 310.052 233.387 303.739 244.789C297.425 256.192 283.059 260.318 271.657 254.004C260.255 247.69 256.135 233.328 262.449 221.925C268.762 210.523 283.119 206.4 294.521 212.714Z" fill="#1E1E1D" stroke="#FBFCE1" stroke-width="4" stroke-miterlimit="10" stroke-linecap="round" stroke-linejoin="round"></path><path d="M298.816 204.959C283.131 196.274 263.378 201.948 254.693 217.632C246.008 233.316 251.679 253.074 267.364 261.759C283.048 270.444 302.808 264.769 311.493 249.084C320.178 233.4 314.5 213.644 298.816 204.959ZM291.83 217.575C300.547 222.402 303.704 233.381 298.877 242.098C294.05 250.815 283.067 253.97 274.35 249.143C265.632 244.316 262.482 233.335 267.31 224.618C272.137 215.901 283.112 212.748 291.83 217.575Z" fill="#FBFCE1" stroke="#FBFCE1" stroke-width="4" stroke-miterlimit="10" stroke-linecap="round" stroke-linejoin="round"></path><path d="M315.484 234.943L301.136 233.336C301.143 236.306 300.416 239.314 298.876 242.096C294.048 250.814 283.067 253.968 274.35 249.141C269.729 246.582 266.69 242.291 265.557 237.529L252.111 242.975C254.504 250.689 259.739 257.537 267.363 261.759C283.047 270.444 302.809 264.768 311.494 249.084C313.985 244.586 315.253 239.753 315.484 234.943Z" fill="#FBFCE1" stroke="#FBFCE1" stroke-width="4" stroke-miterlimit="10" stroke-linecap="round" stroke-linejoin="round"></path><path d="M297.273 207.745C283.128 199.912 265.312 205.029 257.48 219.174C249.647 233.32 254.761 251.139 268.907 258.972C283.053 266.805 300.874 261.687 308.707 247.541C316.54 233.395 311.419 215.578 297.273 207.745ZM290.973 219.123C298.835 223.477 301.682 233.378 297.328 241.24C292.975 249.102 283.07 251.947 275.208 247.594C267.345 243.24 264.504 233.337 268.858 225.475C273.212 217.613 283.111 214.77 290.973 219.123Z" fill="#DB6332" stroke="#1E1E1D" stroke-width="4" stroke-miterlimit="10" stroke-linecap="round" stroke-linejoin="round"></path><path d="M268.126 233.358C268.126 225.093 274.827 218.392 283.093 218.392C291.358 218.392 298.059 225.093 298.059 233.358C298.059 241.624 291.358 248.325 283.093 248.325C274.827 248.325 268.126 241.624 268.126 233.358Z" fill="#FBFCE1"></path><path d="M272.061 233.358C272.061 227.266 277 222.327 283.093 222.327C289.185 222.327 294.124 227.266 294.124 233.358C294.124 239.451 289.185 244.39 283.093 244.39C277 244.39 272.061 239.451 272.061 233.358Z" fill="#1E1E1D"></path><path d="M277.713 233.358C277.713 230.387 280.121 227.978 283.093 227.978C286.064 227.978 288.473 230.387 288.473 233.358C288.473 236.33 286.064 238.738 283.093 238.738C280.121 238.738 277.713 236.33 277.713 233.358Z" fill="#FBFCE1"></path><path d="M280.184 233.358C280.184 231.752 281.486 230.45 283.093 230.45C284.699 230.45 286.001 231.752 286.001 233.358C286.001 234.964 284.699 236.266 283.093 236.266C281.486 236.266 280.184 234.964 280.184 233.358Z" fill="#DB6332"></path><path d="M281.917 233.358C281.917 232.709 282.443 232.183 283.093 232.183C283.742 232.183 284.268 232.709 284.268 233.358C284.268 234.008 283.742 234.534 283.093 234.534C282.443 234.534 281.917 234.008 281.917 233.358Z" fill="#1E1E1D"></path><path d="M285.239 222.854L283.093 233.358L292.896 232.618L288.428 230.635L334.834 189.875L337.032 191.87L338.777 189.919L336.654 188.595L336.978 188.31L339.047 189.599L340.663 187.682L337.626 185.862L336.502 182.021L334.35 183.325L335.233 186.114L334.878 186.426L333.964 183.539L332.097 184.729L333.34 187.846L286.58 228.505L285.239 222.854Z" fill="#1E1E1D" stroke="#FBFCE1" stroke-miterlimit="10" stroke-linejoin="round"></path><path d="M31.998 107.37C31.998 99.394 38.4641 92.929 46.4391 92.929H209.029C217.004 92.929 223.47 99.394 223.47 107.37C223.47 115.345 217.004 121.811 209.029 121.811H46.4391C38.4641 121.811 31.998 115.345 31.998 107.37Z" fill="#FBFCE1" stroke="#1E1E1D" stroke-width="3" stroke-miterlimit="10" stroke-linejoin="round"></path><path d="M36.3569 107.403C36.3569 101.689 40.6639 97.0569 45.9769 97.0569H209.322C214.635 97.0569 218.942 101.689 218.942 107.403C218.942 113.116 214.635 117.748 209.322 117.748H45.9769C40.6639 117.748 36.3569 113.116 36.3569 107.403Z" fill="#1E1E1D"></path><path d="M194.555 99.1938H208.636C213.151 99.1938 216.812 102.854 216.812 107.37C216.812 111.885 213.151 115.546 208.636 115.546H194.555V99.1938Z" fill="#FBFCE1"></path><path d="M200.38 106.001C200.38 104.231 201.816 102.795 203.586 102.795C205.357 102.795 206.792 104.231 206.792 106.001C206.792 107.772 205.357 109.207 203.586 109.207C201.816 109.207 200.38 107.772 200.38 106.001Z" stroke="#1E1E1D" stroke-width="2" stroke-miterlimit="10" stroke-linejoin="round"></path><path d="M208.731 111.307L205.683 108.595" stroke="#1E1E1D" stroke-width="2" stroke-miterlimit="10" stroke-linecap="round" stroke-linejoin="round"></path></svg>