<svg class=" bg-black w-full" viewBox="0 0 716 651" fill="none" xmlns="http://www.w3.org/2000/svg"><g clip-path="url(#clip0_887_113)"><mask id="mask0_887_113" maskUnits="userSpaceOnUse" x="-97" y="-186" width="907" height="907"><path d="M810 -186H-97V721H810V-186Z" fill="white"></path></mask><g mask="url(#mask0_887_113)"><path d="M349.063 498.697C349.063 498.697 363.209 502.186 353.855 483.587C344.503 464.987 332.298 450.167 326.896 448.081C321.49 445.998 339.851 438.019 356.914 453.671C356.914 453.671 368.769 465.374 384.974 499.187C401.182 533 421.045 507.12 425.223 507.782C425.223 507.782 385.66 569.489 349.063 498.697Z" fill="#883513" stroke="#2F1003" stroke-width="4" stroke-miterlimit="10" stroke-linejoin="round"></path><path d="M212.807 438.019C212.807 438.019 191.973 443.207 200.19 446.23C208.408 449.257 307.725 518.34 348.745 564.122C348.745 564.122 287.613 447.615 212.807 438.019Z" fill="#883513" stroke="#2F1003" stroke-width="4" stroke-miterlimit="10" stroke-linejoin="round"></path><path d="M498.845 444.915C498.845 444.915 461.431 434.932 447.817 462.608C434.2 490.283 412.247 539.213 377.059 519.549C341.87 499.889 274.226 418.373 212.459 437.856C212.459 437.856 253.471 458.541 278.477 484.772C303.48 511.002 401.427 626.092 422.391 649.151C443.351 672.21 493.064 732.204 498.252 733.967L632.104 732.298C632.104 732.298 512.338 623.612 495.395 611.005C478.452 598.401 469.7 590.664 469.802 572.911C469.905 555.158 469.524 551.315 466.691 536.441C463.859 521.566 463.103 503.529 474.467 478.786C485.832 454.046 498.485 451.467 499.528 446.699C499.528 446.699 500.335 445.336 498.845 444.915Z" fill="url(#paint0_linear_887_113)" stroke="url(#paint1_linear_887_113)" stroke-width="4" stroke-miterlimit="10" stroke-linejoin="round"></path></g><path d="M122.491 26.3136C117.406 27.5127 102.358 34.4155 98.0723 37.0337C96.6239 37.9187 104.969 45.9278 103.629 46.9527C97.2022 51.8689 92.0952 58.3437 88.7756 65.724C88.1473 67.1207 77.9209 58.8825 77.4251 60.3409C75.5582 65.8319 71.213 83.2735 71.4495 89.3537C71.4972 90.5833 84.6929 89.9375 84.8353 91.1798C85.7244 98.9274 88.3789 106.034 92.3646 112.152C93.0627 113.224 81.2962 119.928 82.0735 120.938C85.8414 125.833 98.5781 137.654 103.864 140.801C105.075 141.524 110.751 128.85 112.024 129.464C120.037 133.337 129.222 135.057 138.717 133.965C140.032 133.817 141.245 143.849 142.521 143.598C148.477 142.428 162.771 137.433 167.676 134.358C168.663 133.739 160.925 125.603 161.861 124.917C169.896 119.039 174.909 113.22 178.141 103.754C178.48 102.761 189.531 107.441 189.806 106.423C191.183 101.323 193.702 87.686 193.315 82.1503C193.264 81.4238 181.569 80.8177 181.485 80.0869C180.603 72.3983 177.984 65.3276 174.049 59.2407C173.634 58.5989 183.99 51.8302 183.547 51.2104C178.999 44.8548 167.027 34.7082 160.094 31.1664C158.729 30.4692 152.497 40.9614 151.066 40.3939C143.859 37.5359 135.863 36.352 127.622 37.2977C125.688 37.5199 124.341 25.8773 122.491 26.3136ZM131.781 60.4165C145.199 58.8764 157.322 68.503 158.862 81.9212C160.402 95.339 150.778 107.481 137.36 109.021C123.941 110.561 111.817 100.916 110.277 87.4974C108.737 74.0795 118.363 61.9566 131.781 60.4165Z" fill="#DB6332" stroke="#DB6332" stroke-width="4" stroke-miterlimit="10" stroke-linejoin="round"></path><path d="M127.313 29.0766C122.341 30.2494 107.626 36.999 103.435 39.5591C102.019 40.4244 110.179 48.2561 108.869 49.2583C102.584 54.0654 97.5907 60.3969 94.3446 67.6136C93.7305 68.9792 83.7309 60.9235 83.2459 62.3496C81.4204 67.7188 77.1717 84.774 77.4027 90.7194C77.4496 91.9215 90.3526 91.2899 90.492 92.505C91.3615 100.081 93.957 107.03 97.8541 113.013C98.5367 114.061 87.0314 120.617 87.7912 121.603C91.4757 126.389 103.93 137.95 109.098 141.028C110.283 141.732 115.833 129.34 117.078 129.941C124.913 133.727 133.895 135.408 143.179 134.343C144.465 134.195 145.651 144.006 146.898 143.761C152.722 142.615 166.7 137.733 171.496 134.724C172.461 134.12 164.895 126.165 165.81 125.494C173.666 119.747 178.568 114.056 181.729 104.8C182.061 103.83 192.866 108.406 193.135 107.41C194.482 102.423 196.945 89.0886 196.566 83.6756C196.516 82.9651 185.081 82.3726 184.999 81.6578C184.136 74.1397 181.575 67.226 177.727 61.2739C177.321 60.6463 187.448 54.0276 187.015 53.4217C182.568 47.207 170.862 37.2853 164.082 33.8221C162.747 33.14 156.653 43.3997 155.254 42.8449C148.206 40.0501 140.388 38.8925 132.33 39.8176C130.439 40.0347 129.121 28.6503 127.313 29.0766ZM136.397 62.4237C149.517 60.9178 161.371 70.3309 162.877 83.4513C164.383 96.572 154.972 108.445 141.852 109.951C128.731 111.457 116.875 102.025 115.369 88.9042C113.863 75.7835 123.276 63.9296 136.397 62.4237Z" fill="#1E1E1D" stroke="#DB6332" stroke-width="4" stroke-miterlimit="10" stroke-linejoin="round"></path><path d="M45.8382 88.8462C42.9238 88.1305 33.4211 87.7284 30.5441 87.9476C29.5715 88.0217 31.7471 94.3002 30.7941 94.4744C26.221 95.3094 21.9158 97.287 18.2884 100.195C17.6018 100.745 14.5238 93.8576 13.8889 94.4741C11.4986 96.7951 4.71638 104.582 3.24795 107.754C2.95105 108.396 9.87056 111.515 9.61872 112.188C8.0484 116.385 7.54894 120.714 7.98823 124.886C8.06533 125.615 0.293243 125.972 0.426875 126.688C1.07568 130.177 4.50082 139.556 6.38224 142.549C6.81336 143.232 13.0299 138.234 13.5206 138.881C16.6071 142.957 20.8571 146.237 25.9994 148.16C26.7114 148.429 24.7094 153.877 25.4277 154.083C28.7806 155.041 37.3992 156.22 40.7119 155.93C41.3788 155.873 39.547 149.687 40.2049 149.581C45.8522 148.674 49.9376 147.008 54.0653 143.011C54.4983 142.591 58.9284 147.873 59.3353 147.425C61.373 145.176 66.2264 138.857 67.475 135.925C67.6389 135.541 61.8145 132.173 61.9626 131.777C63.5211 127.613 64.0296 123.311 63.6076 119.169C63.5628 118.731 70.6305 117.975 70.5655 117.543C69.9004 113.103 66.4281 104.782 63.8068 101.158C63.291 100.445 57.3599 104.183 56.7761 103.519C53.8362 100.173 50.0555 97.4772 45.5922 95.8068C44.5446 95.415 46.8985 89.1065 45.8382 88.8462ZM41.6766 108.721C48.9435 111.441 52.6293 119.535 49.9095 126.8C47.19 134.068 39.0926 137.763 31.8257 135.045C24.5585 132.324 20.877 124.221 23.5965 116.953C26.316 109.687 34.4097 106.001 41.6766 108.721Z" fill="#FFFFEC" stroke="#FFFFEC" stroke-width="4" stroke-miterlimit="10" stroke-linejoin="round"></path><path d="M48.7309 89.5475C45.8162 88.8319 36.3135 88.4298 33.4368 88.6487C32.4642 88.7227 34.6398 95.0016 33.6865 95.1754C29.1138 96.0108 24.8085 97.988 21.1811 100.896C20.4945 101.446 17.4165 94.5587 16.7816 95.1751C14.391 97.4962 7.60908 105.283 6.14065 108.456C5.84375 109.097 12.7633 112.216 12.5114 112.889C10.9411 117.086 10.4413 121.416 10.8809 125.585C10.958 126.316 3.18594 126.67 3.31957 127.39C3.96808 130.879 7.39352 140.257 9.27494 143.247C9.70606 143.933 15.9226 138.936 16.413 139.583C19.4999 143.658 23.7498 146.939 28.8921 148.861C29.6038 149.127 27.6021 154.579 28.3201 154.784C31.673 155.742 40.2916 156.922 43.6046 156.631C44.2715 156.574 42.4397 150.388 43.0976 150.282C48.7446 149.375 52.83 147.709 56.958 143.713C57.391 143.292 61.8211 148.574 62.2277 148.127C64.2658 145.877 69.1191 139.559 70.3677 136.626C70.5316 136.242 64.7072 132.874 64.8553 132.478C66.4135 128.315 66.9221 124.013 66.5 119.871C66.4556 119.432 73.5232 118.676 73.4582 118.244C72.7928 113.804 69.3204 105.483 66.6995 101.859C66.1834 101.146 60.2526 104.884 59.6688 104.22C56.7289 100.874 52.9482 98.1785 48.4849 96.5081C47.4373 96.116 49.7912 89.8078 48.7309 89.5475ZM44.5693 109.422C51.8362 112.142 55.5217 120.236 52.8022 127.501C50.0827 134.77 41.9853 138.464 34.7181 135.746C27.4512 133.025 23.7697 124.923 26.4892 117.655C29.2087 110.388 37.3022 106.703 44.5693 109.422Z" fill="#1E1E1D" stroke="#FFFFEC" stroke-width="2" stroke-miterlimit="10" stroke-linejoin="round"></path><path d="M587.691 30.6287C556.85 13.5511 518.009 24.7072 500.931 55.5476C483.855 86.3881 495.005 125.237 525.846 142.316C556.687 159.392 595.54 148.232 612.619 117.391C629.694 86.5519 618.532 47.7063 587.691 30.6287ZM573.953 55.4364C591.096 64.9278 597.302 86.5144 587.809 103.656C578.319 120.796 556.723 127 539.581 117.506C522.442 108.016 516.247 86.4255 525.74 69.2845C535.23 52.1434 556.814 45.9446 573.953 55.4364Z" fill="#1E1E1D" stroke="#FBFCE1" stroke-width="4" stroke-miterlimit="10" stroke-linecap="round" stroke-linejoin="round"></path><path d="M580.411 43.779C556.832 30.7228 527.137 39.2516 514.079 62.83C501.024 86.4083 509.55 116.11 533.129 129.167C556.705 142.222 586.412 133.69 599.467 110.112C612.525 86.5338 603.987 56.8353 580.411 43.779ZM569.908 62.745C583.014 70.0016 587.758 86.5051 580.502 99.61C573.246 112.715 556.735 117.458 543.629 110.2C530.526 102.944 525.788 86.4371 533.048 73.3321C540.304 60.2275 556.802 55.4884 569.908 62.745Z" fill="#DB6332" stroke="#FBFCE1" stroke-width="4" stroke-miterlimit="10" stroke-linecap="round" stroke-linejoin="round"></path><path d="M605.468 88.8533L583.897 86.4386C583.909 90.9022 582.815 95.4252 580.499 99.6073C573.243 112.712 556.735 117.455 543.629 110.197C536.685 106.351 532.116 99.9006 530.411 92.7407L510.197 100.928C513.795 112.525 521.665 122.818 533.126 129.167C556.705 142.222 586.412 133.69 599.47 110.112C603.213 103.35 605.121 96.0851 605.468 88.8533Z" fill="#FBFCE1" stroke="#FBFCE1" stroke-width="4" stroke-miterlimit="10" stroke-linecap="round" stroke-linejoin="round"></path><path d="M125.581 118.005C125.581 104.447 136.572 93.4557 150.131 93.4557H562.87C576.426 93.4557 587.419 104.447 587.419 118.005V390.979C587.419 404.539 576.426 415.528 562.87 415.528H150.131C136.572 415.528 125.581 404.539 125.581 390.979V118.005Z" fill="#1E1E1D" stroke="#FBFCE1" stroke-width="4" stroke-miterlimit="10" stroke-linejoin="round"></path><path d="M142.078 124.043C142.078 116.636 148.081 110.635 155.486 110.635H557.515C564.919 110.635 570.921 116.636 570.921 124.043V387.136C570.921 394.543 564.919 400.545 557.515 400.545H155.486C148.081 400.545 142.078 394.543 142.078 387.136V124.043Z" fill="#FBFCE1" fill-opacity="0.06" stroke="#FBFCE1" stroke-width="4" stroke-miterlimit="10" stroke-linejoin="round" class=""></path><mask id="mask1_887_113" maskUnits="userSpaceOnUse" x="140" y="108" width="433" height="295"><path d="M142.078 124.043C142.078 116.636 148.081 110.635 155.486 110.635H557.515C564.919 110.635 570.921 116.636 570.921 124.043V387.136C570.921 394.543 564.919 400.545 557.515 400.545H155.486C148.081 400.545 142.078 394.543 142.078 387.136V124.043Z" fill="#FBFCE1" fill-opacity="0.88" stroke="#FBFCE1" stroke-width="4" stroke-miterlimit="10" stroke-linejoin="round"></path></mask><g mask="url(#mask1_887_113)"><g opacity="0.137582"><path d="M548.678 17.1479L591.634 83.6513L97.075 403.102L54.1189 336.598L548.678 17.1479Z" fill="#FBFCE1" fill-opacity="0.48"></path><path d="M611.098 96.979L630.647 127.244L139.955 444.196L120.405 413.932L611.098 96.979Z" fill="#FBFCE1" fill-opacity="0.48"></path></g></g><path d="M93.3932 414.981L620.186 414.618C620.186 414.618 624.615 440.828 605.713 444.099L104.59 444.196C104.59 444.196 88.1598 435.407 93.3932 414.981Z" fill="#FBFCE1" stroke="#FBFCE1" stroke-width="4" stroke-miterlimit="10" stroke-linejoin="round"></path><path d="M82.9654 175.642V315.365" stroke="#1E1E1D" stroke-width="10.6667" stroke-miterlimit="10" stroke-linejoin="round"></path><path d="M113.718 422.431H115.308V431.99H113.718V422.431Z" fill="#1E1E1D" stroke="#1E1E1D" stroke-miterlimit="10" stroke-linejoin="round"></path><path d="M118.734 422.455H120.324V432.015H118.734V422.455Z" fill="#1E1E1D" stroke="#1E1E1D" stroke-miterlimit="10" stroke-linejoin="round"></path><path d="M123.62 422.431H125.21V431.99H123.62V422.431Z" fill="#1E1E1D" stroke="#1E1E1D" stroke-miterlimit="10" stroke-linejoin="round"></path><path d="M128.246 422.431H129.837V431.99H128.246V422.431Z" fill="#1E1E1D" stroke="#1E1E1D" stroke-miterlimit="10" stroke-linejoin="round"></path><path d="M132.749 422.431H134.34V431.99H132.749V422.431Z" fill="#1E1E1D" stroke="#1E1E1D" stroke-miterlimit="10" stroke-linejoin="round"></path><path d="M494.878 198.713C494.878 186.617 504.686 176.809 516.782 176.809H628.806C640.902 176.809 650.71 186.617 650.71 198.713V257.626C650.71 269.722 640.902 279.53 628.806 279.53H516.782C504.686 279.53 494.878 269.722 494.878 257.626V198.713Z" fill="#FBFCE1" stroke="#DB6332" stroke-width="4" stroke-miterlimit="10" stroke-linejoin="round"></path><path d="M445.586 318.461C445.586 307.221 454.701 298.105 465.945 298.105H695.15C706.393 298.105 715.509 307.221 715.509 318.461C715.509 329.705 706.393 338.82 695.15 338.82H465.945C454.701 338.82 445.586 329.705 445.586 318.461Z" fill="#FBFCE1" stroke="#1E1E1D" stroke-width="4" stroke-miterlimit="10" stroke-linejoin="round"></path><path d="M451.732 318.51C451.732 310.452 457.803 303.925 465.292 303.925H695.564C703.053 303.925 709.126 310.452 709.126 318.51C709.126 326.564 703.053 333.091 695.564 333.091H465.292C457.803 333.091 451.732 326.564 451.732 318.51Z" fill="#1E1E1D"></path><path d="M674.748 306.936H694.596C700.964 306.936 706.121 312.097 706.121 318.461C706.121 324.828 700.964 329.989 694.596 329.989H674.748V306.936Z" fill="#FBFCE1"></path><path d="M631.772 211.45L598.119 242.929L569.17 220.46L545.477 236.798L526.626 232.163L513.816 244.235" stroke="#1E1E1D" stroke-width="4" stroke-miterlimit="10" stroke-linecap="round" stroke-linejoin="round"></path><path d="M522.587 231.499C522.587 229.107 524.525 227.17 526.913 227.17C529.305 227.17 531.243 229.107 531.243 231.499C531.243 233.887 529.305 235.825 526.913 235.825C524.525 235.825 522.587 233.887 522.587 231.499Z" fill="#DB6332" stroke="#FBFCE1" stroke-width="2" stroke-miterlimit="10" stroke-linejoin="round"></path><path d="M540.183 235.417C540.183 233.026 542.121 231.088 544.509 231.088C546.9 231.088 548.838 233.026 548.838 235.417C548.838 237.806 546.9 239.744 544.509 239.744C542.121 239.744 540.183 237.806 540.183 235.417Z" fill="#DB6332" stroke="#FBFCE1" stroke-width="2" stroke-miterlimit="10" stroke-linejoin="round"></path><path d="M564.136 220.497C564.136 218.106 566.074 216.168 568.466 216.168C570.857 216.168 572.795 218.106 572.795 220.497C572.795 222.885 570.857 224.823 568.466 224.823C566.074 224.823 564.136 222.885 564.136 220.497Z" fill="#DB6332" stroke="#FBFCE1" stroke-width="2" stroke-miterlimit="10" stroke-linejoin="round"></path><path d="M594.025 240.176C594.025 237.784 595.963 235.846 598.355 235.846C600.746 235.846 602.684 237.784 602.684 240.176C602.684 242.564 600.746 244.502 598.355 244.502C595.963 244.502 594.025 242.564 594.025 240.176Z" fill="#DB6332" stroke="#FBFCE1" stroke-width="2" stroke-miterlimit="10" stroke-linejoin="round"></path><path d="M627.442 210.45C627.442 208.059 629.38 206.121 631.771 206.121C634.163 206.121 636.101 208.059 636.101 210.45C636.101 212.842 634.163 214.78 631.771 214.78C629.38 214.78 627.442 212.842 627.442 210.45Z" fill="#DB6332" stroke="#FBFCE1" stroke-width="2" stroke-miterlimit="10" stroke-linejoin="round"></path><path d="M682.96 316.532C682.96 314.038 684.982 312.013 687.479 312.013C689.974 312.013 691.996 314.038 691.996 316.532C691.996 319.03 689.974 321.052 687.479 321.052C684.982 321.052 682.96 319.03 682.96 316.532Z" stroke="#1E1E1D" stroke-width="4" stroke-miterlimit="10" stroke-linejoin="round"></path><path d="M694.732 324.012L690.436 320.191" stroke="#1E1E1D" stroke-width="4" stroke-miterlimit="10" stroke-linecap="round" stroke-linejoin="round"></path><path d="M374.709 182.913C365.812 204.134 330.082 241.587 313.977 247.785C295.722 248.012 280.753 261.747 278.607 279.442C273.869 280.691 269.519 282.868 265.755 285.779C260.125 282.157 253.438 280.032 246.242 280.032C226.297 280.032 210.125 296.173 210.125 316.082C210.125 317.808 210.292 319.492 210.524 321.155C201.537 321.457 193.395 325.031 187.235 330.733C180.799 320.829 169.653 314.262 156.946 314.262C137.002 314.262 120.83 330.397 120.83 350.306C120.83 355.512 121.956 360.458 123.947 364.927C106.145 367.155 92.364 382.284 92.364 400.66C92.364 405.113 93.213 409.361 94.6914 413.297H391.698C391.9 413.185 392.112 413.083 392.314 412.968C392.441 413.086 392.583 413.182 392.713 413.297H571.296C575.172 407.553 577.436 400.635 577.436 393.186C577.436 373.277 561.264 357.145 541.319 357.145C530.967 357.145 521.662 361.517 515.077 368.482C509.68 362.774 502.448 358.844 494.313 357.604C494.854 355.521 495.174 353.354 495.174 351.101C495.174 336.822 483.577 325.246 469.27 325.246C466.658 325.246 464.143 325.639 461.766 326.355C459.771 308.33 444.473 294.308 425.885 294.308C418.853 294.308 412.332 296.355 406.79 299.828C383.25 259.207 401.067 197.05 401.067 197.05C384.892 197.05 374.709 182.913 374.709 182.913Z" fill="#1E1E1D" stroke="#FBFCE1" stroke-width="3" stroke-miterlimit="10" stroke-linejoin="round"></path><path d="M374.498 198.904C375.895 196.494 374.873 198.169 374.558 198.74C374.338 199.142 373.627 200.321 373.866 199.928C374.304 199.209 374.256 199.318 374.498 198.904Z" stroke="#FBFCE1" stroke-width="3" stroke-miterlimit="10" stroke-linecap="round" stroke-linejoin="round"></path><path d="M370 204.5C365 212 361 219 349.8 230.395" stroke="#FBFCE1" stroke-width="3" stroke-miterlimit="10" stroke-linecap="round" stroke-linejoin="round"></path><path d="M346.456 234.597C345.023 236.689 342.568 238.143 341.244 240.263" stroke="#FBFCE1" stroke-width="3" stroke-miterlimit="10" stroke-linecap="round" stroke-linejoin="round"></path><path d="M337.296 244.438C335.231 245.868 332.994 247.543 331.18 249.287" stroke="#FBFCE1" stroke-width="3" stroke-miterlimit="10" stroke-linecap="round" stroke-linejoin="round"></path><path d="M379 213.5C363.5 244 363.039 260.005 362.474 265.018C362.284 266.69 362.108 268.455 362.108 270.139C362.108 270.414 362.108 272.709 362.108 271.987" stroke="#FBFCE1" stroke-width="3" stroke-miterlimit="10" stroke-linecap="round" stroke-linejoin="round"></path><path d="M388.475 198.39C388.088 199.532 387 200.5 385.881 203.13" stroke="#FBFCE1" stroke-width="3" stroke-miterlimit="10" stroke-linecap="round" stroke-linejoin="round"></path><path d="M362.217 280.794C362.217 282.553 363.609 289.615 365 291" stroke="#FBFCE1" stroke-width="3" stroke-miterlimit="10" stroke-linecap="round" stroke-linejoin="round"></path><path d="M387.919 220.853C387.919 229.859 385.194 238.73 384.566 247.745C384.36 250.693 384.387 253.771 384.499 256.728C384.55 258.106 384.992 262.188 385.161 260.818" stroke="#FBFCE1" stroke-width="3" stroke-miterlimit="10" stroke-linecap="round" stroke-linejoin="round"></path><path d="M261.836 293.065C261.836 286.115 279.889 277.909 285.316 281.383" stroke="#FBFCE1" stroke-width="3" stroke-miterlimit="10" stroke-linecap="round" stroke-linejoin="round"></path><path d="M175.957 390.574C175.957 386.631 172.85 382.662 174.236 378.281C177.188 368.945 195.257 363.064 202.39 370.629C203.11 371.391 202.23 368.537 202.23 367.491C202.23 365.915 201.912 363.929 202.265 362.39C203.332 357.731 210.397 351.972 214.887 351.113C222.125 349.732 229.142 350.865 235.243 354.886C237.106 356.114 239.364 357.84 240.271 359.926C240.734 360.99 240.806 364.531 240.806 363.37C240.806 354 261.749 349.892 268.149 351.754C274.604 353.632 280.566 358.998 282.196 365.601C282.477 366.744 282.335 375.926 282.661 376.004C285.675 376.733 289.195 375.599 292.284 376.032C296.568 376.633 304.272 382.913 304.272 387.659" stroke="#FBFCE1" stroke-width="3" stroke-miterlimit="10" stroke-linecap="round" stroke-linejoin="round"></path><path d="M228.344 376.413C228.344 372.11 232.552 368.773 236.056 367.119C243.194 363.751 250.744 363.633 257.362 368.585C258.798 369.661 260.811 371.055 261.51 372.809" stroke="#FBFCE1" stroke-width="3" stroke-miterlimit="10" stroke-linecap="round" stroke-linejoin="round"></path><path d="M126.747 382.988C123.405 380.279 123.462 374.907 124.385 371.146C126.266 363.479 130.929 357.541 138.946 355.521C140.687 355.083 143.036 354.397 144.838 354.956" stroke="#FBFCE1" stroke-width="3" stroke-miterlimit="10" stroke-linecap="round" stroke-linejoin="round"></path><path d="M349.165 368.618C349.165 369.468 350.006 367.116 350.608 366.511C351.512 365.607 352.86 365.009 354.036 364.549C357.673 363.122 363.608 362.451 367.357 363.733C371.508 365.151 376.403 368.268 377.79 372.688C378.102 373.682 377.307 379.351 378.087 379.892C378.135 379.923 384.95 378.417 386.038 378.52C394.482 379.297 398.101 386.752 398.101 394.054" stroke="#FBFCE1" stroke-width="3" stroke-miterlimit="10" stroke-linecap="round" stroke-linejoin="round"></path><path d="M279.756 308.681C280.161 309.431 279.78 306.961 280.025 306.144C280.388 304.917 281.289 303.75 282.102 302.782C284.623 299.798 289.521 296.382 293.43 295.726C297.757 295 303.546 295.408 306.869 298.637C307.616 299.363 309.614 304.726 310.557 304.829C310.615 304.838 315.894 300.27 316.897 299.841C324.695 296.506 331.425 301.34 334.898 307.762" stroke="#FBFCE1" stroke-width="3" stroke-miterlimit="10" stroke-linecap="round" stroke-linejoin="round"></path><path d="M382.401 338.624C382.401 328.943 398.264 325.868 404.825 325.868C421.139 325.868 431.857 335.147 431.857 351.422" stroke="#FBFCE1" stroke-width="3" stroke-miterlimit="10" stroke-linecap="round" stroke-linejoin="round"></path><path d="M412.368 360.715C414.43 355.993 423.428 353.819 427.851 353.36C438.184 352.28 450.665 359.506 453.395 370.23C454.105 373.017 453.54 376.095 453.54 378.934" stroke="#FBFCE1" stroke-width="3" stroke-miterlimit="10" stroke-linecap="round" stroke-linejoin="round"></path><path d="M447.487 358.375C447.487 350.463 463.589 350.109 468.421 350.778C481.324 352.564 489.279 364.909 489.279 376.902" stroke="#FBFCE1" stroke-width="3" stroke-miterlimit="10" stroke-linecap="round" stroke-linejoin="round"></path><path d="M481.261 398.117C481.261 382.535 497.554 375.427 511.15 378.505C516.44 379.702 526.726 384.358 526.726 391.136" stroke="#FBFCE1" stroke-width="3" stroke-miterlimit="10" stroke-linecap="round" stroke-linejoin="round"></path><path d="M541.008 367.448C545.939 365.861 552.491 368.213 556.778 370.456C558.28 371.243 559.65 372.27 560.893 373.419C561.491 373.973 562.586 375.995 562.586 375.182" stroke="#FBFCE1" stroke-width="3" stroke-miterlimit="10" stroke-linecap="round" stroke-linejoin="round"></path><path d="M566.129 380.884C566.156 380.824 566.688 381.467 566.776 381.588C567.293 382.329 567.725 383.115 568.115 383.928C568.23 384.167 568.647 385.183 568.653 385.092" stroke="#FBFCE1" stroke-width="3" stroke-miterlimit="10" stroke-linecap="round" stroke-linejoin="round"></path><path d="M228.344 295.42C224.16 295.42 220.795 301.5 220.16 305.044" stroke="#FBFCE1" stroke-width="3" stroke-miterlimit="10" stroke-linecap="round" stroke-linejoin="round"></path><path d="M218.328 310.9C218.328 312.762 218.155 314.591 218.155 316.442" stroke="#FBFCE1" stroke-width="3" stroke-miterlimit="10" stroke-linecap="round" stroke-linejoin="round"></path><path d="M411.624 306.135C414.766 305.252 417.148 304.106 420.543 304.106C420.722 304.106 421.544 303.982 421.565 304.227" stroke="#FBFCE1" stroke-width="3" stroke-miterlimit="10" stroke-linecap="round" stroke-linejoin="round"></path><path d="M428.029 303.535C432.029 303.535 434.03 304.294 437.456 305.751" stroke="#FBFCE1" stroke-width="3" stroke-miterlimit="10" stroke-linecap="round" stroke-linejoin="round"></path><path d="M159.053 320.714C162.326 320.714 166.894 321.515 169.758 323.262" stroke="#FBFCE1" stroke-width="3" stroke-miterlimit="10" stroke-linecap="round" stroke-linejoin="round"></path><path d="M152.923 321.569C150.275 321.569 146.045 323.296 144.109 325.155" stroke="#FBFCE1" stroke-width="3" stroke-miterlimit="10" stroke-linecap="round" stroke-linejoin="round"></path><path d="M169.758 300.587C169.758 294.894 174.383 290.275 180.088 290.275C185.794 290.275 190.419 294.894 190.419 300.587C190.419 306.283 185.794 310.9 180.088 310.9C174.383 310.9 169.758 306.283 169.758 300.587Z" fill="#1E1E1D" stroke="#FBFCE1" stroke-width="3" stroke-miterlimit="10" stroke-linecap="round" stroke-linejoin="round"></path><path d="M93.0905 350.152C93.0905 346.258 96.2526 343.101 100.153 343.101C104.054 343.101 107.216 346.258 107.216 350.152C107.216 354.046 104.054 357.202 100.153 357.202C96.2526 357.202 93.0905 354.046 93.0905 350.152Z" fill="#1E1E1D" stroke="#FBFCE1" stroke-width="3" stroke-miterlimit="10" stroke-linecap="round" stroke-linejoin="round"></path><path d="M413.904 267.464C413.904 260.973 419.177 255.709 425.68 255.709C432.183 255.709 437.456 260.973 437.456 267.464C437.456 273.955 432.183 279.218 425.68 279.218C419.177 279.218 413.904 273.955 413.904 267.464Z" fill="#1E1E1D" stroke="#FBFCE1" stroke-width="3" stroke-miterlimit="10" stroke-linecap="round" stroke-linejoin="round"></path><path d="M508.075 344.71C508.075 341.617 510.59 339.108 513.689 339.108C516.791 339.108 519.303 341.617 519.303 344.71C519.303 347.806 516.791 350.315 513.689 350.315C510.59 350.315 508.075 347.806 508.075 344.71Z" fill="#1E1E1D" stroke="#FBFCE1" stroke-width="3" stroke-miterlimit="10" stroke-linecap="round" stroke-linejoin="round"></path><path d="M307.129 250.905C306.201 254.79 302.292 257.19 298.395 256.265C294.501 255.337 292.097 251.434 293.025 247.546C293.953 243.658 297.865 241.26 301.76 242.186C305.654 243.114 308.057 247.017 307.129 250.905Z" fill="#1E1E1D" stroke="#FBFCE1" stroke-width="3" stroke-miterlimit="10" stroke-linecap="round" stroke-linejoin="round"></path><path d="M210.022 285.555C209.527 287.632 207.438 288.914 205.357 288.418C203.278 287.922 201.994 285.839 202.49 283.762C202.986 281.685 205.075 280.403 207.153 280.899C209.233 281.395 210.518 283.478 210.022 285.555Z" fill="#1E1E1D" stroke="#FBFCE1" stroke-width="3" stroke-miterlimit="10" stroke-linecap="round" stroke-linejoin="round"></path><path d="M450.347 22.3158C450.347 22.3158 456.624 10.8625 467.828 5.18407C479.03 -0.494359 494.588 0.136313 494.588 0.136313C494.588 0.136313 502.578 11.856 503.981 24.3163C505.384 36.777 500.773 49.4442 500.773 49.4442L443.303 156.268L392.877 129.14L450.347 22.3158Z" fill="#DB6332"></path><path d="M402.848 75.8587C402.848 75.8587 407.349 67.5679 413.172 62.2453C418.998 56.9227 425.813 54.9974 425.813 54.9974C425.813 54.9974 427.606 61.3232 426.363 69.1107C425.118 76.8982 421.175 85.7187 421.175 85.7187L379.659 162.89C379.659 162.89 379.822 168.537 369.467 162.965C359.78 157.756 361.331 153.031 361.331 153.031L402.848 75.8587Z" fill="#DB6332"></path><path d="M463.532 109.646C463.532 109.646 468.034 101.355 473.86 96.0329C479.686 90.7103 486.497 88.785 486.497 88.785C486.497 88.785 488.29 95.1104 487.048 102.898C485.805 110.685 481.86 119.505 481.86 119.505L440.343 196.678C440.343 196.678 437.42 198.362 429.133 194.084C424.507 191.699 422.016 186.816 422.016 186.816L463.532 109.646Z" fill="#DB6332"></path><path d="M375.849 177.296L406.663 193.679L403.298 200.007C403.298 200.007 394.936 199.614 385.219 194.308C375.644 189.081 372.484 183.627 372.484 183.627L375.849 177.296Z" fill="#883513"></path><path d="M377.186 168.193L415.558 188.219L411.147 196.672C411.147 196.672 400.619 196.548 388.523 190.051C376.602 183.648 372.771 176.646 372.771 176.646L377.186 168.193Z" fill="#DB6332"></path><path d="M442.499 36.9094C442.499 36.9094 442.589 45.9132 463.916 57.524C483.906 68.4056 492.922 64.0378 492.922 64.0378L422.862 191.551C422.862 191.551 417.577 195.511 394.887 183.119C373.558 171.467 372.436 164.422 372.436 164.422L442.499 36.9094Z" fill="#FBFCE1"></path><path d="M369.053 156.269L392.877 110.21L426.802 101.484L393.917 161.475L369.053 156.269Z" fill="#883513" stroke="#883513" stroke-width="4" stroke-miterlimit="10" stroke-linejoin="round"></path><path d="M433.317 189.595L458.054 144.021L446.232 111.049L415.05 171.941L433.317 189.595Z" fill="#883513" stroke="#883513" stroke-width="4" stroke-miterlimit="10" stroke-linejoin="round"></path><path d="M434.33 82.2319C434.33 73.5356 441.377 66.4861 450.075 66.4861C458.77 66.4861 465.821 73.5356 465.821 82.2319C465.821 90.9282 458.77 97.978 450.075 97.978C441.377 97.978 434.33 90.9282 434.33 82.2319Z" fill="#1E1E1D" stroke="#DB6332" stroke-width="6" stroke-miterlimit="10" stroke-linejoin="round"></path><mask id="mask2_887_113" maskUnits="userSpaceOnUse" x="434" y="66" width="32" height="32"><path d="M434.33 82.2319C434.33 73.5356 441.377 66.4861 450.075 66.4861C458.77 66.4861 465.821 73.5356 465.821 82.2319C465.821 90.9282 458.77 97.978 450.075 97.978C441.377 97.978 434.33 90.9282 434.33 82.2319Z" fill="white"></path></mask><g mask="url(#mask2_887_113)"><path opacity="0.212781" d="M434.783 85.6371L459.701 70.2861L462.371 74.6186L437.453 89.9699L434.783 85.6371Z" fill="#FBFCE1"></path><path opacity="0.212781" d="M437.897 91.9677L462.815 76.6165L463.858 78.3113L438.94 93.6623L437.897 91.9677Z" fill="#FBFCE1"></path></g><path d="M8.34265 156.411C8.34265 150.645 13.0164 145.971 18.7822 145.971H261.223C266.988 145.971 271.662 150.645 271.662 156.411V328.381C271.662 334.146 266.988 338.82 261.223 338.82H18.7822C13.0164 338.82 8.34265 334.146 8.34265 328.381V156.411Z" fill="#1E1E1D" stroke="#DB6332" stroke-width="6" stroke-miterlimit="10" stroke-linejoin="round"></path><path d="M8.13733 155.594C8.13733 149.829 12.8123 145.155 18.579 145.155H261.313C267.082 145.155 271.756 149.829 271.756 155.594C271.756 155.594 271.78 168.271 271.771 168.271H8.41518C8.24919 168.271 8.13733 155.594 8.13733 155.594Z" fill="#DB6332" stroke="#DB6332" stroke-width="6" stroke-miterlimit="10" stroke-linejoin="round"></path><path d="M223.479 156.002C223.479 153.303 225.668 151.114 228.371 151.114C231.071 151.114 233.26 153.303 233.26 156.002C233.26 158.705 231.071 160.894 228.371 160.894C225.668 160.894 223.479 158.705 223.479 156.002Z" fill="#F2F3D9"></path><path d="M239.234 156.002C239.234 153.303 241.423 151.114 244.123 151.114C246.826 151.114 249.014 153.303 249.014 156.002C249.014 158.705 246.826 160.894 244.123 160.894C241.423 160.894 239.234 158.705 239.234 156.002Z" fill="#FDC4AD"></path><path d="M253.858 156.002C253.858 153.303 256.05 151.114 258.75 151.114C261.45 151.114 263.638 153.303 263.638 156.002C263.638 158.705 261.45 160.894 258.75 160.894C256.05 160.894 253.858 158.705 253.858 156.002Z" fill="#1E1E1D"></path><path d="M82.9655 184.805V324.529" stroke="#474747" stroke-width="4" stroke-miterlimit="10" stroke-linecap="round" stroke-linejoin="round"></path><path d="M43.4048 201.715V205.031L31.6158 199.922V197.086L43.4048 191.977V195.316L35.19 198.48L43.4048 201.715ZM50.6939 191.906L47.4126 205.418C47.3033 205.863 47.2056 206.215 47.1197 206.473C47.0415 206.73 46.9165 206.93 46.7447 207.07C46.5806 207.219 46.3384 207.293 46.0181 207.293C45.2212 207.293 44.8228 206.949 44.8228 206.262C44.8228 206.082 44.9009 205.633 45.0572 204.914L48.3267 191.402C48.4986 190.684 48.6626 190.191 48.8189 189.926C48.9751 189.66 49.2798 189.527 49.7329 189.527C50.1236 189.527 50.4204 189.621 50.6236 189.809C50.8345 189.996 50.94 190.254 50.94 190.582C50.94 190.824 50.8579 191.266 50.6939 191.906ZM64.147 199.922L52.3579 205.055V201.738L60.5962 198.504L52.3579 195.316V192.023L64.147 197.109V199.922Z" fill="#DB6332"></path><path d="M19.3938 230.564C19.3938 229.061 20.6122 227.843 22.1148 227.843H43.6778C45.1804 227.843 46.3988 229.061 46.3988 230.564V230.624C46.3988 232.127 45.1804 233.345 43.6778 233.345H22.1148C20.6122 233.345 19.3938 232.127 19.3938 230.624V230.564Z" fill="#6F6D6D"></path><path d="M47.9178 230.564C47.9178 229.061 49.1359 227.843 50.6388 227.843H70.9335C72.4364 227.843 73.6545 229.061 73.6545 230.564C73.6545 232.066 72.4364 233.285 70.9335 233.285H50.6388C49.1359 233.285 47.9178 232.066 47.9178 230.564Z" fill="#6F6D6D"></path><path d="M19.3938 242.681C19.3938 241.179 20.6122 239.96 22.1148 239.96H33.5161C35.019 239.96 36.2371 241.179 36.2371 242.681C36.2371 244.184 35.019 245.402 33.5161 245.402H22.1148C20.6122 245.402 19.3938 244.184 19.3938 242.681Z" fill="#6F6D6D"></path><path d="M19.1432 292.476C19.1432 290.973 20.3613 289.755 21.8642 289.755H33.5161C35.019 289.755 36.2371 290.973 36.2371 292.476C36.2371 293.978 35.019 295.197 33.5161 295.197H21.8642C20.3613 295.197 19.1432 293.978 19.1432 292.476Z" fill="#DB6332"></path><path d="M59.8708 242.681C59.8708 241.179 61.0893 239.96 62.5918 239.96H70.9335C72.4364 239.96 73.6545 241.179 73.6545 242.681C73.6545 244.184 72.4364 245.402 70.9335 245.402H62.5918C61.0893 245.402 59.8708 244.184 59.8708 242.681Z" fill="#6F6D6D"></path><path d="M37.7128 242.681C37.7128 241.179 38.9312 239.96 40.4338 239.96H55.685C57.1879 239.96 58.406 241.179 58.406 242.681C58.406 244.184 57.1879 245.402 55.685 245.402H40.4338C38.9312 245.402 37.7128 244.184 37.7128 242.681Z" fill="#DB6332"></path><path d="M37.7128 292.476C37.7128 290.973 38.9228 289.755 40.4151 289.755H70.9526C72.4449 289.755 73.6545 290.973 73.6545 292.476C73.6545 293.978 72.4449 295.197 70.9526 295.197H40.4151C38.9228 295.197 37.7128 293.978 37.7128 292.476Z" fill="#6F6D6D"></path><path d="M54.6323 254.817C54.6323 253.314 55.8504 252.096 57.3533 252.096H70.9335C72.4364 252.096 73.6545 253.314 73.6545 254.817C73.6545 256.32 72.4364 257.538 70.9335 257.538H57.3533C55.8504 257.538 54.6323 256.32 54.6323 254.817Z" fill="#DB6332"></path><path d="M19.3938 254.817C19.3938 253.314 20.6122 252.096 22.1148 252.096H50.3594C51.862 252.096 53.0804 253.314 53.0804 254.817C53.0804 256.32 51.862 257.538 50.3594 257.538H22.1148C20.6122 257.538 19.3938 256.32 19.3938 254.817Z" fill="#6F6D6D"></path><path d="M19.1432 267.216C19.1432 265.71 20.3613 264.495 21.8642 264.495H70.9335C72.4364 264.495 73.6545 265.71 73.6545 267.216C73.6545 268.718 72.4364 269.937 70.9335 269.937H21.8642C20.3613 269.937 19.1432 268.718 19.1432 267.216Z" fill="#DB6332"></path><path d="M19.1432 279.261C19.1432 277.758 20.3613 276.54 21.8642 276.54H39.6777C41.1803 276.54 42.3987 277.758 42.3987 279.261C42.3987 280.763 41.1803 281.982 39.6777 281.982H21.8642C20.3613 281.982 19.1432 280.763 19.1432 279.261Z" fill="#6F6D6D"></path><path d="M44.2341 279.261C44.2341 277.758 45.4522 276.54 46.9551 276.54H58.065C59.5679 276.54 60.786 277.758 60.786 279.261C60.786 280.763 59.5679 281.982 58.065 281.982H46.9551C45.4522 281.982 44.2341 280.763 44.2341 279.261Z" fill="#6F6D6D"></path><path d="M62.1797 279.261C62.1797 277.758 63.3982 276.54 64.9007 276.54H70.9335C72.4364 276.54 73.6545 277.758 73.6545 279.261C73.6545 280.763 72.4364 281.982 70.9335 281.982H64.9007C63.3982 281.982 62.1797 280.763 62.1797 279.261Z" fill="#6F6D6D"></path><path d="M19.1432 303.949C19.1432 302.447 20.3613 301.228 21.8642 301.228H55.4341C56.937 301.228 58.1551 302.447 58.1551 303.949C58.1551 305.452 56.937 306.67 55.4341 306.67H21.8642C20.3613 306.67 19.1432 305.452 19.1432 303.949Z" fill="#6F6D6D"></path><path d="M97.0875 302.589C97.0875 304.841 98.9148 306.67 101.169 306.67H170.86C173.115 306.67 174.942 304.841 174.942 302.589V302.498C174.942 300.246 173.115 298.417 170.86 298.417H101.169C98.9148 298.417 97.0875 300.246 97.0875 302.498V302.589Z" fill="#6F6D6D"></path><path d="M179.321 302.589C179.321 304.841 181.148 306.67 183.402 306.67H249.438C251.693 306.67 253.519 304.841 253.519 302.589C253.519 300.333 251.693 298.507 249.438 298.507H183.402C181.148 298.507 179.321 300.333 179.321 302.589Z" fill="#6F6D6D"></path><path d="M97.0875 284.413C97.0875 286.668 98.9148 288.494 101.169 288.494H141.564C143.819 288.494 145.646 286.668 145.646 284.413C145.646 282.157 143.819 280.331 141.564 280.331H101.169C98.9148 280.331 97.0875 282.157 97.0875 284.413Z" fill="#6F6D6D"></path><path d="M96.364 209.721C96.364 211.974 98.1913 213.803 100.445 213.803H141.564C143.818 213.803 145.646 211.974 145.646 209.721C145.646 207.466 143.818 205.64 141.564 205.64H100.445C98.1913 205.64 96.364 207.466 96.364 209.721Z" fill="#DB6332"></path><path d="M213.781 284.413C213.781 286.668 215.61 288.494 217.862 288.494H249.438C251.693 288.494 253.519 286.668 253.519 284.413C253.519 282.157 251.693 280.331 249.438 280.331H217.862C215.61 280.331 213.781 282.157 213.781 284.413Z" fill="#6F6D6D"></path><path d="M149.901 284.413C149.901 286.668 151.728 288.494 153.982 288.494H205.479C207.731 288.494 209.56 286.668 209.56 284.413C209.56 282.157 207.731 280.331 205.479 280.331H153.982C151.728 280.331 149.901 282.157 149.901 284.413Z" fill="#DB6332"></path><path d="M149.901 209.721C149.901 211.974 151.728 213.803 153.982 213.803H249.438C251.693 213.803 253.519 211.974 253.519 209.721C253.519 207.466 251.693 205.64 249.438 205.64H153.982C151.728 205.64 149.901 207.466 149.901 209.721Z" fill="#6F6D6D"></path><path d="M198.679 266.209C198.679 268.464 200.506 270.291 202.76 270.291H249.438C251.693 270.291 253.519 268.464 253.519 266.209C253.519 263.957 251.693 262.128 249.438 262.128H202.76C200.506 262.128 198.679 263.957 198.679 266.209Z" fill="#DB6332"></path><path d="M97.0875 266.209C97.0875 268.464 98.9148 270.291 101.169 270.291H190.123C192.377 270.291 194.204 268.464 194.204 266.209C194.204 263.957 192.377 262.128 190.123 262.128H101.169C98.9148 262.128 97.0875 263.957 97.0875 266.209Z" fill="#6F6D6D"></path><path d="M96.364 247.613C96.364 249.868 98.1913 251.694 100.445 251.694H249.438C251.693 251.694 253.519 249.868 253.519 247.613C253.519 245.357 251.693 243.531 249.438 243.531H100.445C98.1913 243.531 96.364 245.357 96.364 247.613Z" fill="#DB6332"></path><path d="M96.364 229.542C96.364 231.797 98.1913 233.624 100.445 233.624H159.328C161.582 233.624 163.409 231.797 163.409 229.542C163.409 227.29 161.582 225.461 159.328 225.461H100.445C98.1913 225.461 96.364 227.29 96.364 229.542Z" fill="#6F6D6D"></path><path d="M168.701 229.542C168.701 231.797 170.528 233.624 172.783 233.624H212.338C214.594 233.624 216.42 231.797 216.42 229.542C216.42 227.29 214.594 225.461 212.338 225.461H172.783C170.528 225.461 168.701 227.29 168.701 229.542Z" fill="#6F6D6D"></path><path d="M220.438 229.542C220.438 231.797 222.267 233.624 224.519 233.624H249.438C251.693 233.624 253.519 231.797 253.519 229.542C253.519 227.29 251.693 225.461 249.438 225.461H224.519C222.267 225.461 220.438 227.29 220.438 229.542Z" fill="#6F6D6D"></path><path d="M96.364 192.512C96.364 194.765 98.1913 196.594 100.445 196.594H204.754C207.008 196.594 208.834 194.765 208.834 192.512C208.834 190.257 207.008 188.431 204.754 188.431H100.445C98.1913 188.431 96.364 190.257 96.364 192.512Z" fill="#6F6D6D"></path></g><defs><linearGradient id="paint0_linear_887_113" x1="422.282" y1="434.871" x2="455.5" y2="638" gradientUnits="userSpaceOnUse"><stop stop-color="#DB6332"></stop><stop offset="0.447917" stop-color="#DB6332" stop-opacity="0.958333"></stop><stop offset="1" stop-color="#DB6332" stop-opacity="0"></stop></linearGradient><linearGradient id="paint1_linear_887_113" x1="372" y1="455" x2="435.5" y2="613" gradientUnits="userSpaceOnUse"><stop stop-color="#883513"></stop><stop offset="1" stop-color="#883513" stop-opacity="0"></stop></linearGradient><clipPath id="clip0_887_113"><rect width="716" height="651" fill="white"></rect></clipPath></defs></svg>