<svg viewBox="0 0 699 350" fill="none" xmlns="http://www.w3.org/2000/svg" class="lg:h-60 lg:w-auto w-72"><mask id="mask0_893_165" maskUnits="userSpaceOnUse" x="0" y="0" width="699" height="350"><path d="M698.059 0H0V349.307H698.059V0Z" fill="white"></path></mask><g mask="url(#mask0_893_165)"><path d="M554.723 71.103L498.891 151.453L393.075 50.85L288.314 143.95L224.583 92.922L87.311 248.681L105.323 265.829L227.145 128.076L288.77 179.747L389.706 83.908L502.128 189.767L502.391 189.331L503.085 189.864L571.265 90.445L554.723 71.103Z" fill="#65301A" stroke="#1E1E1D" stroke-width="3" stroke-miterlimit="10" stroke-linecap="round" stroke-linejoin="round"></path><path d="M300.613 148.991C300.613 148.991 295.63 95.556 302.535 56.266C306.178 35.531 321.604 18.806 324.357 15.798C338.131 0.745966 386.854 -12.258 415.014 19.945C418.248 23.643 421.217 28.041 423.941 32.968C449.544 79.277 447.538 215.302 447.538 215.302L300.475 177.934L300.613 148.991Z" fill="#313131"></path><path d="M352.77 124.787L354.251 171.996L398.357 171.596L396.1 123.173L352.77 124.787Z" fill="#FAFAE8" stroke="#1E1E1D" stroke-width="2" stroke-miterlimit="10" stroke-linejoin="round"></path><path d="M289.812 245.348C289.812 245.348 273.422 242.752 281.798 245.424C281.798 245.424 187.004 255.947 171.298 241.218C171.298 241.218 154.108 232.08 156.309 213.897C158.509 195.714 173.423 185.884 226.526 178.214C279.629 170.544 282.129 147.913 306.457 161.773C306.457 161.773 308.157 158.295 317.723 161.998C317.723 161.998 328.655 159.191 335.293 162.218C341.931 165.244 336.272 161.355 336.272 161.355C336.272 161.355 331.657 149.269 342.628 151.113C342.628 151.113 405.001 153.514 407.201 153.276C407.201 153.276 413.859 152.532 412.203 163.922C410.546 175.311 413.087 162.409 413.087 162.409C413.087 162.409 418.95 160.378 419.764 163.689C419.764 163.689 438.492 167.751 453.583 177.934C453.583 177.934 495.475 200.988 483.219 241.218C483.219 241.218 485.962 258.494 399.789 247.512C313.616 236.531 320.164 250.004 320.164 250.004L289.812 245.348Z" fill="#E36733" stroke="#1E1E1D" stroke-width="2" stroke-miterlimit="10" stroke-linejoin="round"></path><path d="M4 293.263C4 264.519 27.301 241.218 56.044 241.218H642.014C670.757 241.218 694.058 264.519 694.058 293.263C694.058 322.006 670.757 345.307 642.014 345.307H56.044C27.301 345.307 4 322.006 4 293.263Z" fill="#FBFCE1" stroke="#E36733" stroke-width="8" stroke-miterlimit="10" stroke-linejoin="round"></path><path d="M17.522 293.263C17.522 270.606 35.889 252.239 58.546 252.239H639.512C662.169 252.239 680.536 270.606 680.536 293.263C680.536 315.919 662.169 334.286 639.512 334.286H58.546C35.889 334.286 17.522 315.919 17.522 293.263Z" fill="#1E1E1D"></path><path d="M580.704 260.061H637.882C656.219 260.061 671.084 274.926 671.084 293.263C671.084 311.599 656.219 326.464 637.882 326.464H580.704V260.061Z" fill="#FBFCE1"></path><path d="M610.845 288.329C610.845 281.949 616.018 276.776 622.399 276.776C628.779 276.776 633.952 281.949 633.952 288.329C633.952 294.71 628.779 299.883 622.399 299.883C616.018 299.883 610.845 294.71 610.845 288.329Z" stroke="#1E1E1D" stroke-width="6" stroke-miterlimit="10" stroke-linejoin="round"></path><path d="M640.942 307.453L629.957 297.678" stroke="#1E1E1D" stroke-width="6" stroke-miterlimit="10" stroke-linecap="round" stroke-linejoin="round"></path><path d="M92.7283 309.802C92.0252 309.802 91.4099 309.568 90.8826 309.099C90.3553 308.63 90.0916 307.986 90.0916 307.166C90.0916 306.439 90.3435 305.824 90.8474 305.32C91.3631 304.804 91.99 304.546 92.7283 304.546C93.4666 304.546 94.0935 304.804 94.6092 305.32C95.1365 305.824 95.4002 306.439 95.4002 307.166C95.4002 307.998 95.1306 308.648 94.5916 309.117C94.0525 309.574 93.4314 309.802 92.7283 309.802ZM80.74 309.802C80.0369 309.802 79.4217 309.574 78.8943 309.117C78.3787 308.648 78.1209 307.998 78.1209 307.166C78.1209 306.427 78.3728 305.806 78.8767 305.302C79.3806 304.798 80.0017 304.546 80.74 304.546C81.4783 304.546 82.1053 304.804 82.6209 305.32C83.1482 305.824 83.4119 306.439 83.4119 307.166C83.4119 307.998 83.1424 308.648 82.6033 309.117C82.0642 309.574 81.4431 309.802 80.74 309.802ZM104.717 309.802C104.025 309.802 103.41 309.568 102.871 309.099C102.344 308.63 102.08 307.986 102.08 307.166C102.08 306.439 102.332 305.824 102.836 305.32C103.351 304.804 103.978 304.546 104.717 304.546C105.455 304.546 106.082 304.804 106.597 305.32C107.125 305.824 107.388 306.439 107.388 307.166C107.388 307.986 107.119 308.63 106.58 309.099C106.053 309.568 105.431 309.802 104.717 309.802ZM128.728 309.802C128.025 309.802 127.41 309.568 126.883 309.099C126.355 308.63 126.092 307.986 126.092 307.166C126.092 306.439 126.344 305.824 126.847 305.32C127.363 304.804 127.99 304.546 128.728 304.546C129.467 304.546 130.094 304.804 130.609 305.32C131.137 305.824 131.4 306.439 131.4 307.166C131.4 307.998 131.131 308.648 130.592 309.117C130.053 309.574 129.431 309.802 128.728 309.802ZM116.74 309.802C116.037 309.802 115.422 309.574 114.894 309.117C114.379 308.648 114.121 307.998 114.121 307.166C114.121 306.427 114.373 305.806 114.877 305.302C115.381 304.798 116.002 304.546 116.74 304.546C117.478 304.546 118.105 304.804 118.621 305.32C119.148 305.824 119.412 306.439 119.412 307.166C119.412 307.998 119.142 308.648 118.603 309.117C118.064 309.574 117.443 309.802 116.74 309.802ZM140.717 309.802C140.025 309.802 139.41 309.568 138.871 309.099C138.344 308.63 138.08 307.986 138.08 307.166C138.08 306.439 138.332 305.824 138.836 305.32C139.351 304.804 139.978 304.546 140.717 304.546C141.455 304.546 142.082 304.804 142.597 305.32C143.125 305.824 143.388 306.439 143.388 307.166C143.388 307.986 143.119 308.63 142.58 309.099C142.053 309.568 141.431 309.802 140.717 309.802ZM164.728 309.802C164.025 309.802 163.41 309.568 162.883 309.099C162.355 308.63 162.092 307.986 162.092 307.166C162.092 306.439 162.344 305.824 162.847 305.32C163.363 304.804 163.99 304.546 164.728 304.546C165.467 304.546 166.094 304.804 166.609 305.32C167.137 305.824 167.4 306.439 167.4 307.166C167.4 307.998 167.131 308.648 166.592 309.117C166.053 309.574 165.431 309.802 164.728 309.802ZM152.74 309.802C152.037 309.802 151.422 309.574 150.894 309.117C150.379 308.648 150.121 307.998 150.121 307.166C150.121 306.427 150.373 305.806 150.877 305.302C151.381 304.798 152.002 304.546 152.74 304.546C153.478 304.546 154.105 304.804 154.621 305.32C155.148 305.824 155.412 306.439 155.412 307.166C155.412 307.998 155.142 308.648 154.603 309.117C154.064 309.574 153.443 309.802 152.74 309.802ZM176.717 309.802C176.025 309.802 175.41 309.568 174.871 309.099C174.344 308.63 174.08 307.986 174.08 307.166C174.08 306.439 174.332 305.824 174.836 305.32C175.351 304.804 175.978 304.546 176.717 304.546C177.455 304.546 178.082 304.804 178.597 305.32C179.125 305.824 179.388 306.439 179.388 307.166C179.388 307.986 179.119 308.63 178.58 309.099C178.053 309.568 177.431 309.802 176.717 309.802Z" fill="#FBFCE1"></path><path d="M315.759 241.218C315.759 241.218 280.051 252.003 282.275 252.713C282.275 252.713 274.646 253.023 256.589 253.552C239.929 254.04 213.339 254.92 199.896 251.166C187.74 247.77 179.846 245.676 175.092 241.218C175.092 241.218 155.541 227.448 157.741 209.265C159.942 191.082 187.91 190.317 241.013 182.647C294.116 174.977 282.588 183.853 306.916 197.713L320.164 250.004L315.759 241.218Z" fill="#E36733"></path><path d="M306 89.3332C306 80.3764 311.205 72.843 318.266 70.6545C318.742 70.5072 319.186 86.0057 322.5 87.7636C328.597 90.9981 339 82.4198 339 89.3332C339 100.004 331.613 108.653 322.5 108.653C313.387 108.653 306 100.004 306 89.3332Z" fill="#FAFAE8" stroke="#1E1E1D" stroke-width="2" stroke-miterlimit="10" stroke-linejoin="round"></path><path d="M321.474 56.266C321.474 56.266 306.497 148.419 380.326 143.257C380.326 143.257 400.937 142.484 411.867 121.334C415.649 114.016 416.583 107.726 416.583 107.726C416.583 107.726 422.457 115.655 432.936 110.707C434.142 110.137 437.302 106.48 438.335 104.436C440.405 100.342 442.715 92.967 439.613 83.537C436.367 73.671 427.245 73.648 421.292 77.165C418.345 78.906 416.208 83.923 415.879 84.296C415.879 84.296 412.911 66.453 412.911 62.04C412.911 62.04 411.026 67.65 410.459 73.311C410.459 73.311 405.93 77.898 393.285 76.184C393.285 76.184 392.22 62.68 392.22 60.01C392.22 60.01 389.801 72.899 389.801 73.835C389.801 73.835 389.949 75.48 380.865 76.189L379.143 59.719C379.143 59.719 380.542 75.986 370.123 76.44C359.704 76.894 353.159 76.386 353.159 76.386L353.28 58.372L349.12 76.762C349.12 76.762 342.11 79.359 334.052 75.817L331.655 57.601C331.655 57.601 330.258 74.384 330.581 75.445C330.581 75.445 321.709 76.986 320.164 75.358L321.474 56.266Z" fill="#FAFAE8" stroke="#1E1E1D" stroke-width="2" stroke-miterlimit="10" stroke-linejoin="round"></path><path d="M432.884 204.187C432.884 204.187 437.542 213.193 429.146 217.092C420.75 220.991 405.784 215.45 401.337 206.886C396.891 198.321 395.874 211.498 397.853 217.611C397.853 217.611 400.322 226.605 412.757 229.027C412.757 229.027 404.379 230.37 397.329 219.241C397.329 219.241 394.685 225.938 396.941 236.783" stroke="#1E1E1D" stroke-width="2" stroke-miterlimit="10" stroke-linejoin="round"></path><path d="M294.665 218.68C294.665 218.68 281.209 212.43 272.655 223.346C264.102 234.261 270.243 238.803 281.383 244.253C281.383 244.253 284.83 256.097 300.179 264.602C300.179 264.602 302.621 272.174 302.621 272.243C302.621 272.243 299.916 269.029 297.303 270.681C297.303 270.681 296.222 280.6 295.127 284.811C295.127 284.811 294.677 291.837 305.015 291.789C305.015 291.789 306.204 300.833 316.588 298.373C316.588 298.373 322.231 305.685 331.236 299.656C331.236 299.656 340.646 292.114 340.954 282.802C340.954 282.802 350.631 290.878 354.413 293.263C354.413 293.263 365.468 311.398 380.075 308.528C380.075 308.528 363.946 288.972 358.506 284.566C358.506 284.566 337.936 258.845 337.319 257.799C336.703 256.753 313.435 224.429 294.665 218.68Z" fill="#FBFCE1" stroke="#1E1E1D" stroke-width="2" stroke-miterlimit="10" stroke-linejoin="round"></path><path d="M343.182 98.945C343.182 98.945 349.111 92.16 357.029 99.303" stroke="#1E1E1D" stroke-width="2" stroke-miterlimit="10" stroke-linecap="round" stroke-linejoin="round"></path><path d="M388.216 102.303C388.216 99.231 389.618 96.741 391.348 96.741C393.078 96.741 394.48 99.231 394.48 102.303C394.48 105.375 393.078 107.866 391.348 107.866C389.618 107.866 388.216 105.375 388.216 102.303Z" fill="#65301A" stroke="#1E1E1D" stroke-width="3" stroke-miterlimit="10" stroke-linecap="round" stroke-linejoin="round"></path><path d="M363.16 123.173C363.16 119.871 369.576 117.194 374.404 117.194C379.232 117.194 383.146 119.871 383.146 123.173C383.146 126.476 379.232 129.153 374.404 129.153C369.576 129.153 363.16 126.476 363.16 123.173Z" fill="#313131" stroke="#1E1E1D" stroke-width="2" stroke-miterlimit="10" stroke-linecap="round" stroke-linejoin="round"></path><path d="M384.681 126.203C384.862 124.673 389.151 128.042 389.151 128.042C389.151 128.042 393.021 125.857 392.866 127.17L386.868 177.96C386.533 180.803 384.429 182.891 382.169 182.624C379.908 182.357 378.347 179.838 378.684 176.993L384.681 126.203Z" fill="#DB6332" stroke="#1E1E1D" stroke-width="4" stroke-miterlimit="10" stroke-linejoin="round"></path><path d="M364.59 65.251C378.487 48.743 403.136 46.627 419.644 60.525C436.152 74.422 438.269 99.071 424.371 115.579C410.473 132.087 385.825 134.203 369.318 120.305C352.809 106.409 350.692 81.76 364.59 65.251Z" stroke="#DB6332" stroke-width="4" stroke-miterlimit="10" stroke-linejoin="round"></path><path d="M366.81 67.12C379.675 51.838 402.493 49.879 417.775 62.744C433.057 75.61 435.017 98.428 422.151 113.71C409.286 128.992 386.468 130.951 371.186 118.085C355.904 105.22 353.945 82.403 366.81 67.12Z" fill="#F2F3D9" fill-opacity="0.536464" stroke="#1E1E1D" stroke-width="4" stroke-miterlimit="10" stroke-linejoin="round"></path><mask id="mask1_893_165" maskUnits="userSpaceOnUse" x="358" y="54" width="73" height="73"><path d="M366.81 67.12C379.675 51.838 402.493 49.879 417.775 62.744C433.057 75.61 435.017 98.428 422.151 113.71C409.286 128.992 386.468 130.951 371.186 118.085C355.904 105.22 353.945 82.403 366.81 67.12Z" fill="white"></path></mask><g mask="url(#mask1_893_165)"><path d="M320.449 54.963C320.449 54.963 304.54 152.846 382.961 147.363C382.961 147.363 404.853 146.542 416.462 124.077C420.48 116.303 421.471 109.623 421.471 109.623C421.471 109.623 427.711 118.044 438.841 112.789C440.123 112.184 443.479 108.299 444.577 106.128C446.775 101.78 449.229 93.946 445.933 83.93C442.485 73.45 432.796 73.426 426.473 77.162C423.344 79.011 421.073 84.34 420.724 84.736C420.724 84.736 417.572 65.783 417.572 61.096C417.572 61.096 415.569 67.055 414.967 73.068C414.967 73.068 410.156 77.94 396.725 76.119C396.725 76.119 395.594 61.776 395.594 58.94C395.594 58.94 393.024 72.63 393.024 73.625C393.024 73.625 393.182 75.372 383.533 76.125L381.703 58.631C381.703 58.631 383.189 75.91 372.123 76.391C361.056 76.873 354.104 76.334 354.104 76.334L354.233 57.2L349.814 76.734C349.814 76.734 342.367 79.492 333.809 75.729L331.263 56.381C331.263 56.381 329.779 74.207 330.122 75.334C330.122 75.334 320.699 76.971 319.058 75.242L320.449 54.963Z" fill="#FAFAE8" stroke="#1E1E1D" stroke-width="2" stroke-miterlimit="10" stroke-linejoin="round"></path><path d="M391.341 101.955C391.341 97.637 393.599 97.668 396.03 97.668C398.461 97.668 400.144 97.637 400.144 101.955C400.144 106.272 398.173 109.771 395.742 109.771C393.312 109.771 391.341 106.272 391.341 101.955Z" fill="#65301A" stroke="#1E1E1D" stroke-width="3" stroke-miterlimit="10" stroke-linecap="round" stroke-linejoin="round"></path><path d="M387.027 92.111C387.027 92.111 394.736 83.287 405.033 92.576" stroke="#1E1E1D" stroke-width="2" stroke-miterlimit="10" stroke-linecap="round" stroke-linejoin="round"></path></g><path d="M366.81 67.12C379.675 51.838 402.493 49.879 417.775 62.744C433.057 75.61 435.017 98.428 422.151 113.71C409.286 128.992 386.468 130.951 371.186 118.085C355.904 105.22 353.945 82.403 366.81 67.12Z" fill="#F2F3D9" fill-opacity="0.536464" stroke="#1E1E1D" stroke-width="4" stroke-miterlimit="10" stroke-linejoin="round"></path><path d="M363.16 149.166C363.16 149.166 376.849 137.952 379 137.642C381.151 137.332 402.054 147.353 403.283 148.737C404.512 150.121 417.108 163.15 424.665 178.733C432.222 194.317 432.409 206.873 433.512 211.072C434.614 215.271 413.777 229.921 396.757 199.067L394.18 192.636L393.553 191.07C393.553 191.07 388.812 185.96 388.432 185.353C388.432 185.353 384.077 186.784 382.883 186.321C382.883 186.321 391.352 192.21 388.103 197.144C388.103 197.144 375.141 193.381 374.49 192.979C373.838 192.577 369.818 186.716 371.896 183.782C371.896 183.782 367.329 177.746 371.091 173.618C371.091 173.618 364.526 169.819 368.174 164.615L375.307 158.147C375.307 158.147 389.158 154.378 392.241 154.378C392.241 154.378 382.933 149.909 381.503 148.128C381.503 148.128 366.177 153.807 363.16 149.166Z" fill="#FAFAE8" stroke="#1E1E1D" stroke-width="2" stroke-miterlimit="10" stroke-linejoin="round"></path><path d="M371.534 173.092C371.534 173.092 379.392 162.216 393.762 164.327" stroke="#1E1E1D" stroke-width="2" stroke-miterlimit="10" stroke-linecap="round" stroke-linejoin="round"></path><path d="M431.336 197.724C431.336 197.724 440.637 197.147 444.172 204.437C444.172 204.437 449.666 214.18 446.616 220.817" stroke="#1E1E1D" stroke-width="2" stroke-miterlimit="10" stroke-linejoin="round"></path><path d="M308.603 226.692L305.082 221.466L300.242 215.302C300.242 215.302 292.899 206.413 276.735 205.548C253.503 204.307 241.047 225.475 245.079 238.794C245.079 238.794 248.674 262.052 285.353 251.36" stroke="#1E1E1D" stroke-width="2" stroke-miterlimit="10" stroke-linejoin="round"></path><path d="M256.589 252.713C256.589 252.713 191.049 258.176 174.843 241.218C174.843 241.218 155.309 234.113 157.91 214.452C157.91 214.452 156.6 201.707 169.901 194.044" stroke="#1E1E1D" stroke-width="2" stroke-miterlimit="10" stroke-linejoin="round"></path><path d="M241.036 192.881C241.036 192.881 248.127 196.168 266.843 198.795C285.56 201.422 297.151 210.314 299.11 213.533C301.069 216.752 299.89 214.594 299.89 214.594" stroke="#1E1E1D" stroke-width="2" stroke-miterlimit="10" stroke-linejoin="round"></path><path d="M588.76 44.358L578.866 120.713L519.664 79.375L588.76 44.358Z" fill="#65301A" stroke="#1E1E1D" stroke-width="3" stroke-miterlimit="10" stroke-linecap="round" stroke-linejoin="round"></path><path d="M302.828 292.114C302.828 292.114 312.008 292.114 316.506 281.338" stroke="#1E1E1D" stroke-width="2" stroke-miterlimit="10" stroke-linecap="round" stroke-linejoin="round"></path><path d="M314.556 299.332C314.556 299.332 325.455 296.024 326.529 287.928" stroke="#1E1E1D" stroke-width="2" stroke-miterlimit="10" stroke-linecap="round" stroke-linejoin="round"></path><path d="M302.828 272.878L303.151 275.701" stroke="#1E1E1D" stroke-width="2" stroke-miterlimit="10" stroke-linecap="round" stroke-linejoin="round"></path><path d="M371.705 183.59C371.705 183.59 381.689 167.63 398.849 176.428" stroke="#1E1E1D" stroke-width="2" stroke-miterlimit="10" stroke-linecap="round" stroke-linejoin="round"></path></g></svg>