<svg viewBox="0 0 869 467" fill="none" xmlns="http://www.w3.org/2000/svg" class="lg:h-80 w-72 lg:w-auto"><g clip-path="url(#clip0_894_167)"><path d="M2 458.31L866.172 464.185L2 458.31Z" fill="#FBFCE1" fill-opacity="0.199747"></path><path d="M2 458.31L866.172 464.185" stroke="#FBFCE1" stroke-width="4" stroke-miterlimit="10" stroke-linejoin="round"></path><path d="M341.606 141.51C343.851 128.975 354.755 119.851 367.489 119.851H732.756C748.897 119.851 761.228 134.259 758.736 150.207L719.74 399.71C717.725 412.599 706.565 422.063 693.52 421.944L323.16 418.569C306.879 418.42 294.645 403.663 297.516 387.637L341.606 141.51Z" fill="#1E1E1D" stroke="#FBFCE1" stroke-width="4" stroke-miterlimit="10" stroke-linejoin="round"></path><path opacity="0.496108" d="M355.392 144.468C356.591 137.735 362.454 132.836 369.294 132.853L729.645 133.747C738.3 133.769 744.888 141.518 743.516 150.063L704.477 393.372C703.373 400.254 697.402 405.293 690.433 405.224L326.278 401.663C317.568 401.578 311.023 393.687 312.55 385.111L355.392 144.468Z" fill="#FBFCE1" fill-opacity="0.199747" stroke="#FBFCE1" stroke-width="4" stroke-miterlimit="10" stroke-linejoin="round"></path><mask id="mask0_894_167" maskUnits="userSpaceOnUse" x="312" y="132" width="432" height="274"><path d="M355.392 144.468C356.591 137.735 362.454 132.836 369.294 132.853L729.645 133.747C738.3 133.769 744.888 141.518 743.516 150.063L704.477 393.372C703.373 400.254 697.402 405.293 690.433 405.224L326.278 401.663C317.568 401.578 311.023 393.687 312.55 385.111L355.392 144.468Z" fill="white"></path></mask><g mask="url(#mask0_894_167)"><path opacity="0.0896536" d="M271.046 351.816L681.844 51.421L725.213 110.728L314.415 411.123L271.046 351.816Z" fill="#FEFEE4"></path><path opacity="0.0896536" d="M334.44 412.212L745.238 111.817L759.057 130.715L348.259 431.11L334.44 412.212Z" fill="#FEFEE4"></path></g><path d="M112.967 420.163C114.989 420.163 125.609 420.246 127.715 420.258L708.374 423.633C717.926 423.688 725.624 431.496 725.569 441.071C725.513 450.647 717.724 458.365 708.172 458.309L127.514 454.935C120.026 454.891 110.818 446.263 109.545 439.284C108.347 432.719 109.705 420.163 112.967 420.163Z" fill="#DBDCC8" stroke="#1E1E1D" stroke-width="4" stroke-miterlimit="10" stroke-linejoin="round"></path><path d="M388.764 421.775L708.374 423.633C717.926 423.688 725.624 431.496 725.569 441.071C725.513 450.647 717.724 458.365 708.172 458.309L403.925 456.541C403.925 456.541 392.851 452.186 389.061 443.494C385.27 434.803 388.764 421.775 388.764 421.775Z" fill="#FEFEE4" stroke="#1E1E1D" stroke-width="4" stroke-miterlimit="10" stroke-linejoin="round"></path><path d="M388.25 421.945C387.427 423.147 385.401 437.329 389.389 445.38C393.692 454.068 404.069 456.622 404.069 456.622" stroke="#1E1E1D" stroke-width="4" stroke-miterlimit="10" stroke-linejoin="round"></path><path d="M680.285 443.561C680.285 441.617 681.86 440.042 683.803 440.042H695.136C697.079 440.042 698.654 441.617 698.654 443.561C698.654 445.504 697.079 447.079 695.136 447.079H683.803C681.86 447.079 680.285 445.504 680.285 443.561Z" fill="#272725"></path><path d="M658.11 443.561C658.11 441.617 659.686 440.042 661.629 440.042H672.962C674.905 440.042 676.48 441.617 676.48 443.561C676.48 445.504 674.905 447.079 672.962 447.079H661.629C659.686 447.079 658.11 445.504 658.11 443.561Z" fill="#272725"></path><path opacity="0.312354" d="M579.495 123.823C581.041 117.731 586.525 113.466 592.81 113.466H645.771H803.813C812.739 113.466 819.295 121.845 817.148 130.508L808.852 163.981C807.323 170.152 801.76 174.467 795.403 174.414L584.644 172.658C575.733 172.584 569.25 164.178 571.443 155.541L579.495 123.823Z" fill="#1E1E1D" stroke="#1E1E1D" stroke-width="4" stroke-miterlimit="10" stroke-linejoin="round"></path><path d="M566.739 105.349C568.286 99.257 573.769 94.992 580.055 94.992H791.058C799.984 94.992 806.539 103.371 804.392 112.034L796.096 145.507C794.567 151.677 789.004 155.993 782.648 155.94L571.888 154.184C562.978 154.11 556.495 145.704 558.687 137.067L566.739 105.349Z" fill="#FEFEE4" stroke="#E16633" stroke-width="4" stroke-miterlimit="10" stroke-linejoin="round"></path><path d="M582.508 114.499C582.826 113.238 583.961 112.354 585.262 112.354H602.148C603.991 112.354 605.345 114.082 604.905 115.872L604.87 116.013C604.556 117.291 603.405 118.185 602.089 118.174L585.238 118.033C583.398 118.017 582.059 116.283 582.508 114.499Z" fill="#E16633"></path><path d="M575.281 134.905C575.599 133.644 576.733 132.76 578.034 132.76H594.92C596.763 132.76 598.118 134.488 597.678 136.278L597.643 136.419C597.329 137.697 596.178 138.591 594.862 138.58L578.01 138.439C576.171 138.423 574.831 136.689 575.281 134.905Z" fill="#B8B8AE"></path><path d="M654.114 124.566C654.602 123.693 655.499 123.156 656.469 123.156H700.549C702.636 123.156 703.948 125.498 702.918 127.386L702.828 127.553C702.342 128.444 701.433 128.993 700.449 128.989L656.459 128.822C654.364 128.815 653.062 126.451 654.114 124.566Z" fill="#E16633"></path><path d="M710.993 114.482C711.311 113.221 712.446 112.337 713.747 112.337H730.633C732.476 112.337 733.83 114.065 733.39 115.855L733.355 115.996C733.041 117.274 731.89 118.168 730.574 118.157L713.723 118.016C711.883 118 710.544 116.266 710.993 114.482Z" fill="#E16633"></path><path d="M703.766 134.888C704.084 133.627 705.218 132.742 706.519 132.742H723.405C725.248 132.742 726.603 134.471 726.163 136.26L726.128 136.402C725.814 137.68 724.663 138.574 723.347 138.563L706.495 138.422C704.656 138.406 703.316 136.672 703.766 134.888Z" fill="#E16633"></path><path d="M610.655 113.425C611.192 112.748 612.009 112.354 612.873 112.354H677.299C679.653 112.354 680.979 115.06 679.537 116.921L679.404 117.092C678.866 117.786 678.037 118.192 677.158 118.189L612.865 118.018C610.499 118.012 609.184 115.278 610.655 113.425Z" fill="#B8B8AE"></path><path d="M603.427 133.831C603.965 133.154 604.781 132.76 605.646 132.76H670.071C672.426 132.76 673.752 135.466 672.31 137.327L672.177 137.498C671.639 138.192 670.809 138.598 669.931 138.595L605.638 138.424C603.272 138.418 601.956 135.684 603.427 133.831Z" fill="#B8B8AE"></path><path d="M579.857 124.21C580.394 123.533 581.211 123.139 582.075 123.139H646.501C648.855 123.139 650.182 125.845 648.739 127.706L648.607 127.877C648.069 128.571 647.239 128.977 646.361 128.974L582.068 128.803C579.701 128.797 578.386 126.063 579.857 124.21Z" fill="#B8B8AE"></path><path d="M685.829 114.539C686.126 113.25 687.274 112.337 688.597 112.337H703.561C705.381 112.337 706.731 114.025 706.332 115.801L706.301 115.938C706.007 117.244 704.842 118.167 703.504 118.155L688.571 118.018C686.756 118.001 685.421 116.309 685.829 114.539Z" fill="#B8B8AE"></path><path d="M678.602 134.945C678.899 133.656 680.047 132.742 681.37 132.742H696.333C698.153 132.742 699.504 134.431 699.105 136.207L699.074 136.344C698.78 137.649 697.615 138.573 696.276 138.561L681.344 138.424C679.528 138.407 678.194 136.715 678.602 134.945Z" fill="#B8B8AE"></path><path d="M706.486 125.359C706.821 124.069 708.119 123.156 709.614 123.156H726.523C728.58 123.156 730.107 124.844 729.655 126.62L729.62 126.757C729.288 128.063 727.971 128.986 726.459 128.974L709.584 128.837C707.533 128.82 706.025 127.128 706.486 125.359Z" fill="#B8B8AE"></path><path d="M748.994 108.381C749.691 105.781 752.047 103.973 754.739 103.973H787.028C790.92 103.973 793.763 107.65 792.784 111.417L784.099 144.837C783.4 147.53 780.926 149.378 778.145 149.285L745.871 148.21C742.044 148.082 739.332 144.424 740.324 140.726L748.994 108.381Z" fill="#B8B8AE"></path><path opacity="0.281455" d="M302.54 204.993C303.315 201.026 306.79 198.163 310.833 198.163H549.806C555.104 198.163 559.094 202.981 558.108 208.186L523.738 389.477C522.967 393.544 519.362 396.454 515.223 396.349L276.408 390.312C271.181 390.18 267.327 385.379 268.329 380.247L302.54 204.993Z" fill="#1E1E1D" stroke="#1E1E1D" stroke-width="6" stroke-miterlimit="10" stroke-linejoin="round"></path><path d="M285.964 185.336C286.738 181.368 290.214 178.505 294.256 178.505H533.23C538.527 178.505 542.518 183.324 541.531 188.528L507.162 369.819C506.39 373.887 502.786 376.796 498.647 376.692L259.832 370.654C254.604 370.522 250.751 365.721 251.753 360.589L285.964 185.336Z" fill="#1E1E1D" stroke="#E16633" stroke-width="6" stroke-miterlimit="10" stroke-linejoin="round"></path><path opacity="0.294476" d="M622.145 214.971C622.606 212.614 624.671 210.913 627.073 210.913H769.071C772.219 210.913 774.59 213.776 774.004 216.868L753.581 324.592C753.123 327.009 750.981 328.737 748.522 328.675L606.618 325.088C603.512 325.009 601.222 322.156 601.817 319.107L622.145 214.971Z" fill="#E16633" stroke="#E16633" stroke-width="6" stroke-miterlimit="10" stroke-linejoin="round"></path><path opacity="0.294476" d="M555.272 295.229C555.626 293.412 557.218 292.101 559.069 292.101H668.478C670.904 292.101 672.731 294.307 672.279 296.69L656.543 379.691C656.19 381.553 654.54 382.885 652.645 382.838L543.308 380.073C540.915 380.013 539.15 377.815 539.609 375.465L555.272 295.229Z" fill="#FEFEE4" stroke="#FEFEE4" stroke-width="6" stroke-miterlimit="10" stroke-linejoin="round"></path><path d="M314.503 231.921L314.17 235.221L302.953 228.954L303.238 226.132L315.48 222.232L315.145 225.555L306.654 227.879L314.503 231.921Z" fill="#DB6332"></path><path d="M322.74 222.894L318.118 236.008C317.965 236.44 317.834 236.78 317.727 237.029C317.619 237.277 317.475 237.464 317.293 237.591C317.112 237.718 316.861 237.766 316.543 237.734C315.75 237.654 315.388 237.272 315.457 236.588C315.475 236.409 315.598 235.97 315.825 235.27L320.435 222.155C320.678 221.457 320.891 220.984 321.073 220.735C321.255 220.487 321.572 220.385 322.022 220.431C322.411 220.47 322.699 220.593 322.886 220.801C323.073 221.008 323.15 221.275 323.117 221.601C323.093 221.842 322.967 222.273 322.74 222.894Z" fill="#DB6332"></path><path d="M335.308 232.219L323.064 236.142L323.397 232.842L331.918 230.451L324.041 226.453L324.372 223.177L335.591 229.42L335.308 232.219Z" fill="#DB6332"></path><path d="M355.556 220.602C355.556 220.602 341.684 293.227 335.472 325.746C329.26 358.266 330.71 350.679 330.71 350.679" stroke="#474747" stroke-width="2" stroke-miterlimit="10" stroke-linecap="round" stroke-linejoin="round"></path><path d="M286.476 253.513C286.559 252.091 287.779 251.006 289.201 251.089L309.603 252.281C311.025 252.364 312.11 253.584 312.027 255.006L312.024 255.062C311.941 256.484 310.721 257.569 309.299 257.486L288.896 256.294C287.475 256.211 286.389 254.991 286.472 253.569L286.476 253.513Z" fill="#6F6D6D"></path><path d="M313.464 255.09C313.547 253.668 314.767 252.582 316.189 252.666L335.392 253.787C336.814 253.871 337.899 255.091 337.816 256.512C337.733 257.934 336.513 259.02 335.091 258.937L315.888 257.815C314.466 257.732 313.381 256.512 313.464 255.09Z" fill="#6F6D6D"></path><path d="M283.727 265.933C283.81 264.511 285.03 263.426 286.452 263.509L297.24 264.139C298.662 264.222 299.747 265.442 299.664 266.864C299.581 268.286 298.361 269.371 296.939 269.288L286.151 268.658C284.729 268.575 283.644 267.355 283.727 265.933Z" fill="#6F6D6D"></path><path d="M275.041 317.057C275.124 315.635 276.344 314.55 277.766 314.633L288.791 315.277C290.213 315.36 291.298 316.58 291.215 318.002C291.132 319.424 289.912 320.509 288.49 320.426L277.465 319.782C276.043 319.699 274.958 318.479 275.041 317.057Z" fill="#DB6332"></path><path d="M322.026 268.171C322.109 266.749 323.329 265.663 324.751 265.746L332.644 266.208C334.065 266.291 335.151 267.511 335.068 268.933C334.985 270.354 333.765 271.44 332.343 271.357L324.45 270.896C323.028 270.812 321.943 269.592 322.026 268.171Z" fill="#6F6D6D"></path><path d="M301.06 266.946C301.143 265.524 302.363 264.438 303.785 264.521L318.216 265.365C319.638 265.448 320.723 266.668 320.64 268.09C320.557 269.511 319.337 270.597 317.915 270.514L303.484 269.671C302.063 269.587 300.977 268.367 301.06 266.946Z" fill="#DB6332"></path><path d="M292.611 318.084C292.694 316.662 293.906 315.576 295.318 315.659L324.212 317.347C325.624 317.429 326.702 318.649 326.619 320.071C326.536 321.493 325.324 322.578 323.912 322.496L295.018 320.808C293.606 320.725 292.528 319.506 292.611 318.084Z" fill="#6F6D6D"></path><path d="M314.301 279.58C314.384 278.158 315.604 277.073 317.026 277.156L329.876 277.907C331.298 277.99 332.383 279.21 332.3 280.632C332.217 282.054 330.997 283.139 329.575 283.056L316.725 282.305C315.304 282.222 314.218 281.002 314.301 279.58Z" fill="#DB6332"></path><path d="M280.959 277.632C281.042 276.21 282.262 275.125 283.684 275.208L310.409 276.769C311.831 276.853 312.916 278.073 312.833 279.494C312.75 280.916 311.53 282.002 310.108 281.919L283.383 280.357C281.962 280.274 280.876 279.054 280.959 277.632Z" fill="#6F6D6D"></path><path d="M278.882 291.229C278.966 289.807 280.186 288.722 281.607 288.805L328.036 291.517C329.458 291.6 330.543 292.82 330.46 294.242C330.377 295.664 329.157 296.75 327.735 296.667L281.307 293.954C279.885 293.871 278.799 292.651 278.882 291.229Z" fill="#DB6332"></path><path d="M277.66 303.26C277.743 301.838 278.963 300.753 280.385 300.836L297.24 301.821C298.662 301.904 299.747 303.124 299.664 304.546C299.581 305.968 298.361 307.053 296.939 306.97L280.084 305.985C278.662 305.902 277.577 304.682 277.66 303.26Z" fill="#6F6D6D"></path><path d="M301.401 304.647C301.484 303.225 302.704 302.14 304.126 302.223L314.638 302.837C316.06 302.92 317.145 304.14 317.062 305.562C316.979 306.984 315.759 308.069 314.337 307.986L303.825 307.372C302.403 307.289 301.318 306.069 301.401 304.647Z" fill="#6F6D6D"></path><path d="M318.381 305.639C318.464 304.217 319.684 303.132 321.106 303.215L326.814 303.549C328.236 303.632 329.321 304.852 329.238 306.274C329.155 307.696 327.935 308.781 326.513 308.698L320.805 308.364C319.383 308.281 318.298 307.061 318.381 305.639Z" fill="#6F6D6D"></path><path d="M274.407 327.912C274.49 326.49 275.71 325.404 277.132 325.488L291.278 326.314L308.895 327.343C310.317 327.426 311.402 328.646 311.319 330.068C311.236 331.49 310.016 332.576 308.594 332.492L276.831 330.637C275.409 330.554 274.324 329.334 274.407 327.912Z" fill="#6F6D6D"></path><path d="M285.518 187.706C286.518 182.371 291.175 178.505 296.603 178.505H529.822C536.869 178.505 542.19 184.896 540.914 191.827L538.974 198.357C538.913 198.689 283.795 196.901 284.081 195.375L285.518 187.706Z" fill="#E16633" stroke="#E16633" stroke-width="5" stroke-miterlimit="10" stroke-linejoin="round"></path><path d="M370.151 222.71C370.501 221.457 371.658 220.603 372.958 220.636L389.839 221.069C391.681 221.116 392.991 222.879 392.505 224.657L392.467 224.797C392.12 226.066 390.946 226.931 389.631 226.886L372.789 226.313C370.95 226.25 369.656 224.482 370.151 222.71Z" fill="#E16633"></path><path d="M363.177 245.955C363.527 244.702 364.684 243.847 365.984 243.88L382.865 244.313C384.707 244.361 386.017 246.123 385.531 247.901L385.493 248.041C385.146 249.311 383.972 250.175 382.657 250.13L365.815 249.557C363.976 249.494 362.681 247.727 363.177 245.955Z" fill="#E16633"></path><path d="M354.494 289.803C354.844 288.55 356.001 287.695 357.301 287.728L374.182 288.161C376.024 288.209 377.334 289.971 376.848 291.749L376.81 291.889C376.463 293.159 375.289 294.023 373.974 293.978L357.132 293.405C355.293 293.342 353.999 291.575 354.494 289.803Z" fill="#E16633"></path><path d="M357.294 274.91C357.644 273.657 358.801 272.802 360.101 272.836L376.982 273.269C378.824 273.316 380.134 275.079 379.648 276.856L379.61 276.997C379.263 278.266 378.089 279.131 376.774 279.086L359.932 278.512C358.093 278.45 356.798 276.682 357.294 274.91Z" fill="#6F6D6D"></path><path d="M361.269 261.841C361.619 260.588 362.776 259.733 364.076 259.767L380.957 260.2C382.799 260.247 384.109 262.009 383.623 263.787L383.585 263.928C383.238 265.197 382.064 266.061 380.749 266.017L363.907 265.443C362.068 265.381 360.773 263.613 361.269 261.841Z" fill="#E16633"></path><path d="M343.234 347.637C343.609 346.391 344.783 345.56 346.082 345.619L362.951 346.387C364.792 346.471 366.067 348.26 365.545 350.027L365.504 350.167C365.132 351.429 363.942 352.27 362.628 352.199L345.8 351.291C343.963 351.192 342.704 349.399 343.234 347.637Z" fill="#6F6D6D"></path><path d="M344.503 336.518C344.878 335.272 346.052 334.441 347.352 334.5L364.22 335.269C366.061 335.352 367.336 337.141 366.815 338.908L366.773 339.048C366.401 340.31 365.211 341.151 363.897 341.08L347.069 340.172C345.232 340.073 343.973 338.28 344.503 336.518Z" fill="#6F6D6D"></path><path d="M348.216 323.099C348.591 321.853 349.765 321.022 351.064 321.081L367.933 321.85C369.774 321.934 371.049 323.722 370.527 325.49L370.486 325.629C370.114 326.891 368.923 327.732 367.609 327.661L350.782 326.753C348.945 326.654 347.686 324.861 348.216 323.099Z" fill="#6F6D6D"></path><path d="M350.029 312.561C350.375 311.306 351.529 310.448 352.83 310.477L369.712 310.855C371.554 310.897 372.87 312.655 372.389 314.434L372.351 314.575C372.009 315.845 370.838 316.714 369.523 316.673L352.679 316.154C350.84 316.098 349.539 314.334 350.029 312.561Z" fill="#E16633"></path><path d="M441.475 234.61C441.985 233.75 442.895 233.236 443.866 233.26L487.931 234.391C490.017 234.444 491.268 236.819 490.191 238.681L490.096 238.845C489.588 239.723 488.665 240.249 487.681 240.22L443.71 238.925C441.616 238.863 440.375 236.467 441.475 234.61Z" fill="#E16633"></path><path d="M491.62 249.232C491.97 247.979 493.127 247.124 494.427 247.158L511.308 247.591C513.15 247.638 514.46 249.401 513.974 251.178L513.936 251.319C513.589 252.588 512.415 253.453 511.1 253.408L494.258 252.834C492.419 252.772 491.125 251.004 491.62 249.232Z" fill="#E16633"></path><path d="M482.937 293.08C483.287 291.827 484.444 290.972 485.745 291.006L502.625 291.439C504.468 291.486 505.778 293.249 505.292 295.026L505.253 295.167C504.906 296.436 503.733 297.301 502.417 297.256L485.575 296.682C483.737 296.62 482.442 294.852 482.937 293.08Z" fill="#E16633"></path><path d="M485.737 278.188C486.087 276.935 487.244 276.08 488.544 276.113L505.425 276.546C507.267 276.594 508.577 278.356 508.091 280.134L508.053 280.274C507.706 281.544 506.532 282.408 505.217 282.363L488.375 281.79C486.536 281.727 485.242 279.959 485.737 278.188Z" fill="#E16633"></path><path d="M476.569 328.93C476.944 327.685 478.117 326.853 479.417 326.912L496.285 327.681C498.127 327.765 499.401 329.553 498.88 331.321L498.839 331.461C498.466 332.723 497.276 333.564 495.962 333.493L479.135 332.585C477.297 332.485 476.038 330.692 476.569 328.93Z" fill="#E16633"></path><path d="M478.105 316.877C478.488 315.633 479.666 314.809 480.966 314.876L497.829 315.747C499.67 315.842 500.934 317.638 500.402 319.402L500.36 319.541C499.98 320.801 498.784 321.635 497.471 321.556L480.649 320.546C478.813 320.436 477.564 318.635 478.105 316.877Z" fill="#E16633"></path><path d="M398.316 222.358C398.87 221.695 399.697 221.322 400.561 221.344L464.965 222.996C467.319 223.057 468.575 225.796 467.086 227.619L466.949 227.787C466.393 228.467 465.553 228.851 464.675 228.826L400.408 227.006C398.042 226.939 396.797 224.173 398.316 222.358Z" fill="#6F6D6D"></path><path d="M391.342 245.602C391.896 244.94 392.723 244.566 393.587 244.588L457.991 246.24C460.345 246.301 461.601 249.04 460.112 250.863L459.975 251.031C459.419 251.711 458.579 252.095 457.701 252.07L393.434 250.251C391.068 250.184 389.823 247.417 391.342 245.602Z" fill="#6F6D6D"></path><path d="M382.659 289.45C383.213 288.788 384.04 288.414 384.904 288.436L449.308 290.088C451.662 290.149 452.918 292.888 451.429 294.711L451.292 294.879C450.736 295.559 449.896 295.943 449.018 295.919L384.751 294.099C382.386 294.032 381.141 291.265 382.659 289.45Z" fill="#6F6D6D"></path><path d="M384.829 275.298C385.276 274.209 386.349 273.509 387.526 273.539L415.782 274.264C417.757 274.315 419.076 276.32 418.341 278.154L418.279 278.309C417.836 279.415 416.749 280.126 415.558 280.089L387.364 279.209C385.386 279.147 384.078 277.129 384.829 275.298Z" fill="#6F6D6D"></path><path d="M422.76 276.084C423.207 274.995 424.28 274.295 425.457 274.325L453.713 275.05C455.688 275.101 457.007 277.106 456.272 278.94L456.21 279.095C455.767 280.201 454.68 280.911 453.489 280.874L425.296 279.994C423.317 279.933 422.009 277.915 422.76 276.084Z" fill="#E16633"></path><path d="M389.434 261.489C389.988 260.826 390.815 260.452 391.679 260.475L456.083 262.127C458.437 262.187 459.693 264.926 458.204 266.75L458.067 266.917C457.511 267.598 456.671 267.982 455.793 267.957L391.526 266.137C389.16 266.07 387.915 263.304 389.434 261.489Z" fill="#6F6D6D"></path><path d="M372.67 336.726C373.237 336.074 374.071 335.717 374.934 335.757L439.293 338.689C441.645 338.797 442.847 341.56 441.322 343.354L441.181 343.519C440.612 344.188 439.765 344.555 438.887 344.513L374.669 341.415C372.305 341.301 371.116 338.51 372.67 336.726Z" fill="#E16633"></path><path d="M375.788 323.933C376.281 322.909 377.337 322.278 378.472 322.33L410.716 323.799C412.736 323.891 414.013 326.008 413.152 327.838L413.079 327.994C412.589 329.035 411.519 329.677 410.37 329.619L378.2 327.993C376.176 327.891 374.91 325.76 375.788 323.933Z" fill="#6F6D6D"></path><path d="M378.202 311.994C378.757 311.332 379.584 310.959 380.447 310.981L444.851 312.655C447.205 312.716 448.46 315.455 446.97 317.278L446.833 317.446C446.277 318.126 445.437 318.51 444.559 318.485L380.293 316.643C377.927 316.576 376.683 313.809 378.202 311.994Z" fill="#6F6D6D"></path><path d="M367.252 232.35C367.806 231.687 368.633 231.313 369.497 231.336L433.901 232.988C436.255 233.048 437.511 235.787 436.022 237.611L435.885 237.778C435.329 238.459 434.489 238.843 433.611 238.818L369.344 236.998C366.978 236.931 365.733 234.165 367.252 232.35Z" fill="#6F6D6D"></path><path d="M354.278 299.756C354.765 299.429 355.342 299.261 355.93 299.276L473.289 302.286C476.03 302.356 477.081 305.893 474.822 307.448L474.576 307.617C474.082 307.958 473.493 308.132 472.894 308.116L355.78 304.936C353.025 304.861 351.99 301.293 354.278 299.756Z" fill="#6F6D6D"></path><path d="M466.463 248.644C466.793 247.363 467.964 246.479 469.286 246.513L484.245 246.897C486.064 246.943 487.371 248.665 486.926 250.431L486.892 250.567C486.565 251.865 485.376 252.758 484.039 252.711L469.115 252.192C467.3 252.128 466.01 250.402 466.463 248.644Z" fill="#6F6D6D"></path><path d="M457.78 292.492C458.11 291.211 459.281 290.327 460.604 290.361L475.562 290.745C477.382 290.791 478.689 292.514 478.244 294.279L478.209 294.415C477.882 295.713 476.693 296.606 475.356 296.56L460.432 296.04C458.617 295.976 457.327 294.25 457.78 292.492Z" fill="#6F6D6D"></path><path d="M460.58 277.599C460.91 276.318 462.081 275.434 463.403 275.468L478.362 275.852C480.181 275.899 481.488 277.621 481.043 279.386L481.009 279.522C480.682 280.82 479.493 281.714 478.156 281.667L463.232 281.147C461.417 281.084 460.127 279.358 460.58 277.599Z" fill="#6F6D6D"></path><path d="M464.555 264.53C464.885 263.249 466.056 262.365 467.378 262.399L482.337 262.783C484.157 262.83 485.463 264.552 485.018 266.317L484.984 266.453C484.657 267.751 483.468 268.644 482.131 268.598L467.207 268.078C465.392 268.015 464.102 266.289 464.555 264.53Z" fill="#6F6D6D"></path><path d="M447.715 341.261C448.071 339.987 449.259 339.126 450.581 339.187L465.529 339.868C467.347 339.951 468.62 341.698 468.14 343.454L468.103 343.59C467.75 344.881 466.543 345.75 465.207 345.677L450.296 344.861C448.483 344.761 447.228 343.01 447.715 341.261Z" fill="#6F6D6D"></path><path d="M418.853 325.526C419.404 324.699 420.347 324.221 421.34 324.266L468.992 326.437C471.181 326.537 472.433 328.976 471.238 330.812L471.133 330.975C470.583 331.82 469.626 332.309 468.619 332.26L421.072 329.926C418.876 329.818 417.634 327.357 418.853 325.526Z" fill="#6F6D6D"></path><path d="M452.972 315.636C453.335 314.364 454.528 313.511 455.85 313.579L470.793 314.351C472.611 314.445 473.873 316.2 473.382 317.953L473.344 318.088C472.984 319.377 471.772 320.24 470.436 320.158L455.531 319.252C453.718 319.141 452.473 317.382 452.972 315.636Z" fill="#6F6D6D"></path><path d="M479.569 304.668C479.938 303.388 481.258 302.508 482.753 302.546L499.656 302.98C501.713 303.032 503.195 304.759 502.698 306.523L502.66 306.659C502.295 307.956 500.955 308.845 499.443 308.794L482.578 308.225C480.527 308.155 479.063 306.425 479.569 304.668Z" fill="#6F6D6D"></path><path d="M495.045 188.451C495.045 185.891 497.12 183.816 499.68 183.816C502.24 183.816 504.315 185.891 504.315 188.451C504.315 191.011 502.24 193.086 499.68 193.086C497.12 193.086 495.045 191.011 495.045 188.451Z" fill="#F2F3D9"></path><path d="M509.976 188.451C509.976 185.891 512.051 183.816 514.611 183.816C517.171 183.816 519.246 185.891 519.246 188.451C519.246 191.011 517.171 193.086 514.611 193.086C512.051 193.086 509.976 191.011 509.976 188.451Z" fill="#FDC4AD"></path><path d="M523.838 188.451C523.838 185.891 525.913 183.816 528.473 183.816C531.033 183.816 533.108 185.891 533.108 188.451C533.108 191.011 531.033 193.086 528.473 193.086C525.913 193.086 523.838 191.011 523.838 188.451Z" fill="#1E1E1D"></path><g opacity="0.346735"><path d="M795.004 333.112C795.004 333.112 821.652 349.37 818.375 311.629C815.097 273.887 797.588 250.967 792.445 251.397C792.445 251.397 756.519 312.08 774.435 330.403C792.351 348.727 792.76 336.939 794.922 335.112C797.083 333.285 795.004 333.112 795.004 333.112Z" fill="#FFFFE7" stroke="#FBFCE1" stroke-width="2" stroke-miterlimit="10" stroke-linejoin="round"></path><path d="M810.841 346.642C810.841 346.642 784.067 358.623 784.646 338.398C785.225 318.172 815.347 275.273 864.075 285.607C864.075 285.607 858.087 284.99 854.454 308.009C850.821 331.028 834.53 390.448 810.841 346.642Z" fill="#1E1E1D" stroke="#FBFCE1" stroke-width="2" stroke-miterlimit="10" stroke-linejoin="round"></path><path d="M793.662 351.447C793.662 351.447 790.548 377.52 794.907 386.626C794.907 386.626 802.949 346.265 824.356 328.964" stroke="#FBFCE1" stroke-width="2" stroke-miterlimit="10" stroke-linejoin="round"></path><path d="M779.321 330.826C779.321 330.826 796.399 339.088 796.385 321.702C796.372 304.317 776.927 282.393 758.24 289.382C739.552 296.371 743.38 301.192 743.38 301.192C743.38 301.192 755.391 295.958 754.909 320.146C754.5 340.631 768.416 346.543 779.321 330.826Z" fill="#E16633" stroke="#FFFFE7" stroke-width="2" stroke-miterlimit="10" stroke-linejoin="round"></path><path d="M774.125 318.15C774.125 318.15 786.15 332.993 787.952 384.415" stroke="#FBFCE1" stroke-width="2" stroke-miterlimit="10" stroke-linejoin="round"></path><path d="M758.428 376.707V440.988H758.584C765.67 453.064 778.664 461.238 793.678 461.238C808.691 461.238 821.653 453.064 828.74 440.988H828.896V376.707H758.428Z" fill="#FEFEE4" stroke="#FEFEE4" stroke-width="2" stroke-miterlimit="10" stroke-linejoin="round"></path></g><path d="M402.549 53.813C393.17 53.813 384.971 60.162 382.603 69.237C379.225 82.184 388.895 94.853 402.273 95.037L498.135 96.343C508.386 96.484 517.189 89.087 518.784 78.959L518.985 77.628C520.955 65.12 511.299 53.813 498.637 53.813H402.549ZM496.803 61.148C504.501 61.148 510.72 67.393 510.72 75.091C510.72 82.789 504.501 89.033 496.803 89.033C489.105 89.033 482.861 82.789 482.861 75.091C482.861 67.393 489.105 61.148 496.803 61.148Z" fill="#E16633" fill-opacity="0.258401"></path><path opacity="0.465736" d="M503.347 42.92C512.726 42.958 520.951 36.642 523.355 27.576C526.786 14.644 517.168 1.935 503.79 1.698L407.935 0.00400429C397.684 -0.177996 388.851 7.18202 387.215 17.304L387.009 18.634C384.989 31.134 394.599 42.48 407.26 42.531L503.347 42.92ZM409.124 35.203C401.426 35.172 395.232 28.903 395.263 21.205C395.294 13.507 401.539 7.28801 409.236 7.31901C416.934 7.35001 423.153 13.62 423.122 21.318C423.091 29.016 416.821 35.234 409.124 35.203Z" fill="#DB6332"></path></g><defs><clipPath id="clip0_894_167"><rect width="868.173" height="466.184" fill="white"></rect></clipPath></defs></svg>